<?xml version="1.0" encoding="UTF-8"?>
<!DOCTYPE svg PUBLIC "-//W3C//DTD SVG 1.1//EN" "http://www.w3.org/Graphics/SVG/1.1/DTD/svg11.dtd">
<svg xmlns="http://www.w3.org/2000/svg" version="1.1" width="345px" height="59px" style="shape-rendering:geometricPrecision; text-rendering:geometricPrecision; image-rendering:optimizeQuality; fill-rule:evenodd; clip-rule:evenodd" xmlns:xlink="http://www.w3.org/1999/xlink">
<g><path style="opacity:1" fill="#7b7304" d="M -0.5,-0.5 C 18.8333,-0.5 38.1667,-0.5 57.5,-0.5C 54.3398,3.24609 55.0064,5.91275 59.5,7.5C 61.8666,10.3412 63.8666,10.0079 65.5,6.5C 65.0345,4.19172 63.7012,2.85839 61.5,2.5C 60.5987,1.70951 59.9321,0.709515 59.5,-0.5C 69.5,-0.5 79.5,-0.5 89.5,-0.5C 86.8975,1.14175 84.2308,2.80841 81.5,4.5C 82.698,4.93964 83.8647,5.27297 85,5.5C 86.4993,10.4782 86.6659,15.4782 85.5,20.5C 83.4083,17.8478 80.7417,17.0145 77.5,18C 68.7305,25.67 65.8971,35.17 69,46.5C 70.3848,50.3125 72.8848,52.9792 76.5,54.5C 80.5,58.5 84.5,58.5 88.5,54.5C 89.1667,54.1667 89.8333,53.8333 90.5,53.5C 90.1776,57.439 91.511,58.2723 94.5,56C 95.6853,54.647 97.0186,53.4803 98.5,52.5C 97.1645,52.6545 95.8311,51.9879 94.5,50.5C 94.5,50.1667 94.5,49.8333 94.5,49.5C 94.6666,33.8298 94.4999,18.1631 94,2.5C 92.8873,3.30501 91.7206,3.97168 90.5,4.5C 90.5,2.83333 90.5,1.16667 90.5,-0.5C 99.8333,-0.5 109.167,-0.5 118.5,-0.5C 115.898,1.14175 113.231,2.80841 110.5,4.5C 111.698,4.93964 112.865,5.27297 114,5.5C 114.667,10.5 114.667,15.5 114,20.5C 111.997,18.0779 109.497,17.2446 106.5,18C 95.9407,27.1321 93.774,37.9654 100,50.5C 101.451,52.4641 103.284,53.7974 105.5,54.5C 109.5,58.5 113.5,58.5 117.5,54.5C 117.833,54.5 118.167,54.5 118.5,54.5C 118.5,55.5 118.5,56.5 118.5,57.5C 121.614,57.4452 123.948,56.1119 125.5,53.5C 127.833,53.5 130.167,53.5 132.5,53.5C 131.602,54.1577 130.602,54.8243 129.5,55.5C 133.833,56.8333 138.167,56.8333 142.5,55.5C 141.234,54.6376 139.901,53.9709 138.5,53.5C 138.5,53.1667 138.5,52.8333 138.5,52.5C 138.667,35.83 138.5,19.1633 138,2.5C 136.887,3.30501 135.721,3.97168 134.5,4.5C 134.5,2.83333 134.5,1.16667 134.5,-0.5C 171.5,-0.5 208.5,-0.5 245.5,-0.5C 243.058,1.22576 240.391,2.72576 237.5,4C 239.138,4.24197 240.638,5.07531 242,6.5C 242.667,20.8333 242.667,35.1667 242,49.5C 241.167,51 240,52.1667 238.5,53C 240.81,53.4966 243.143,53.6633 245.5,53.5C 244.602,54.1577 243.602,54.8243 242.5,55.5C 246.833,56.8333 251.167,56.8333 255.5,55.5C 254.051,54.8281 252.718,54.1614 251.5,53.5C 251.5,53.1667 251.5,52.8333 251.5,52.5C 251.227,44.1122 251.56,35.7788 252.5,27.5C 253.605,26.3995 254.938,25.7329 256.5,25.5C 257.821,34.0088 257.821,42.6755 256.5,51.5C 255.5,52 254.5,52.5 253.5,53C 255.81,53.4966 258.143,53.6633 260.5,53.5C 259.602,54.1577 258.602,54.8243 257.5,55.5C 261.833,56.8333 266.167,56.8333 270.5,55.5C 269.234,54.6376 267.901,53.9709 266.5,53.5C 266.5,53.1667 266.5,52.8333 266.5,52.5C 266.666,44.8261 266.5,37.1594 266,29.5C 265.897,25.261 264.063,22.261 260.5,20.5C 259.115,19.3862 257.615,18.3862 256,17.5C 254.644,18.3802 253.144,18.7135 251.5,18.5C 251.828,13.1254 251.495,7.79207 250.5,2.5C 249.583,3.12723 248.583,3.46056 247.5,3.5C 247.5,2.16667 247.5,0.833333 247.5,-0.5C 276.167,-0.5 304.833,-0.5 333.5,-0.5C 331.02,0.911703 328.687,2.57837 326.5,4.5C 327.953,4.05982 329.119,4.72648 330,6.5C 330.667,20.8333 330.667,35.1667 330,49.5C 329.5,51.3333 328.333,52.5 326.5,53C 328.81,53.4966 331.143,53.6633 333.5,53.5C 332.602,54.1577 331.602,54.8243 330.5,55.5C 334.833,56.8333 339.167,56.8333 343.5,55.5C 342.051,54.8281 340.718,54.1614 339.5,53.5C 339.5,53.1667 339.5,52.8333 339.5,52.5C 339.833,35.82 339.499,19.1533 338.5,2.5C 337.583,3.12723 336.583,3.46056 335.5,3.5C 335.5,2.16667 335.5,0.833333 335.5,-0.5C 338.5,-0.5 341.5,-0.5 344.5,-0.5C 344.5,19.1667 344.5,38.8333 344.5,58.5C 229.5,58.5 114.5,58.5 -0.5,58.5C -0.5,56.8333 -0.5,55.1667 -0.5,53.5C 2.16667,53.5 4.83333,53.5 7.5,53.5C 6.2825,54.1614 4.94916,54.8281 3.5,55.5C 7.83333,56.8333 12.1667,56.8333 16.5,55.5C 15.0508,54.8281 13.7175,54.1614 12.5,53.5C 12.6716,52.5084 12.3382,51.8417 11.5,51.5C 11.5,42.5 11.5,33.5 11.5,24.5C 15.2219,33.6356 18.7219,42.9689 22,52.5C 22.7697,53.5981 23.603,53.5981 24.5,52.5C 25.2323,53.8083 26.0656,55.1416 27,56.5C 27.3333,56.1667 27.6667,55.8333 28,55.5C 30.7013,45.8941 33.868,36.5608 37.5,27.5C 37.6664,35.1739 37.4997,42.8406 37,50.5C 35.4905,51.0897 33.9905,51.7564 32.5,52.5C 35.0865,53.48 37.7531,53.8134 40.5,53.5C 39.2825,54.1614 37.9492,54.8281 36.5,55.5C 41.8333,56.8333 47.1667,56.8333 52.5,55.5C 51.0508,54.8281 49.7175,54.1614 48.5,53.5C 48.6716,52.5084 48.3382,51.8417 47.5,51.5C 47.3334,37.1628 47.5001,22.8295 48,8.5C 49.3068,7.22833 50.8068,6.22833 52.5,5.5C 50.2573,4.52577 47.924,4.19244 45.5,4.5C 46.2625,3.73209 47.2625,3.23209 48.5,3C 44.7887,2.17473 41.122,2.3414 37.5,3.5C 33.2519,14.6585 29.5853,25.9919 26.5,37.5C 22.401,27.3811 18.5676,17.0478 15,6.5C 14.2904,5.02674 13.1238,4.36007 11.5,4.5C 7.82738,2.68235 3.82738,2.01568 -0.5,2.5C -0.5,1.5 -0.5,0.5 -0.5,-0.5 Z"/></g>
<g><path style="opacity:1" fill="#006600" d="M 57.5,-0.5 C 58.1667,-0.5 58.8333,-0.5 59.5,-0.5C 59.9321,0.709515 60.5987,1.70951 61.5,2.5C 61.1075,4.2838 60.4408,5.95047 59.5,7.5C 55.0064,5.91275 54.3398,3.24609 57.5,-0.5 Z"/></g>
<g><path style="opacity:1" fill="#036600" d="M 89.5,-0.5 C 89.8333,-0.5 90.1667,-0.5 90.5,-0.5C 90.5,1.16667 90.5,2.83333 90.5,4.5C 90.3334,19.1705 90.5001,33.8371 91,48.5C 92.0113,49.3366 93.1779,49.67 94.5,49.5C 94.5,49.8333 94.5,50.1667 94.5,50.5C 93.205,51.4884 91.8717,52.4884 90.5,53.5C 89.8333,53.8333 89.1667,54.1667 88.5,54.5C 87.2436,54.0962 86.0769,53.4295 85,52.5C 82.3612,53.9944 79.5279,54.6611 76.5,54.5C 72.8848,52.9792 70.3848,50.3125 69,46.5C 65.8971,35.17 68.7305,25.67 77.5,18C 80.7417,17.0145 83.4083,17.8478 85.5,20.5C 86.6659,15.4782 86.4993,10.4782 85,5.5C 83.8647,5.27297 82.698,4.93964 81.5,4.5C 84.2308,2.80841 86.8975,1.14175 89.5,-0.5 Z"/></g>
<g><path style="opacity:1" fill="#026600" d="M 118.5,-0.5 C 118.833,-0.5 119.167,-0.5 119.5,-0.5C 119.5,1.16667 119.5,2.83333 119.5,4.5C 119.333,19.1705 119.5,33.8371 120,48.5C 121.011,49.3366 122.178,49.67 123.5,49.5C 123.5,49.8333 123.5,50.1667 123.5,50.5C 121.833,51.8333 120.167,53.1667 118.5,54.5C 118.167,54.5 117.833,54.5 117.5,54.5C 115.857,54.5198 114.524,53.8532 113.5,52.5C 111.057,54.0553 108.39,54.722 105.5,54.5C 103.284,53.7974 101.451,52.4641 100,50.5C 93.774,37.9654 95.9407,27.1321 106.5,18C 109.497,17.2446 111.997,18.0779 114,20.5C 114.667,15.5 114.667,10.5 114,5.5C 112.865,5.27297 111.698,4.93964 110.5,4.5C 113.231,2.80841 115.898,1.14175 118.5,-0.5 Z"/></g>
<g><path style="opacity:1" fill="#7b7305" d="M 119.5,-0.5 C 124.167,-0.5 128.833,-0.5 133.5,-0.5C 130.898,1.14175 128.231,2.80841 125.5,4.5C 126.698,4.93964 127.865,5.27297 129,5.5C 129.667,20.5 129.667,35.5 129,50.5C 128.184,51.8228 127.017,52.4894 125.5,52.5C 124.833,51.8333 124.167,51.1667 123.5,50.5C 123.5,50.1667 123.5,49.8333 123.5,49.5C 123.667,33.8298 123.5,18.1631 123,2.5C 121.887,3.30501 120.721,3.97168 119.5,4.5C 119.5,2.83333 119.5,1.16667 119.5,-0.5 Z"/></g>
<g><path style="opacity:1" fill="#006600" d="M 133.5,-0.5 C 133.833,-0.5 134.167,-0.5 134.5,-0.5C 134.5,1.16667 134.5,2.83333 134.5,4.5C 134.333,19.837 134.5,35.1703 135,50.5C 135.816,51.8228 136.983,52.4894 138.5,52.5C 138.5,52.8333 138.5,53.1667 138.5,53.5C 136.5,53.5 134.5,53.5 132.5,53.5C 130.167,53.5 127.833,53.5 125.5,53.5C 125.5,53.1667 125.5,52.8333 125.5,52.5C 127.017,52.4894 128.184,51.8228 129,50.5C 129.667,35.5 129.667,20.5 129,5.5C 127.865,5.27297 126.698,4.93964 125.5,4.5C 128.231,2.80841 130.898,1.14175 133.5,-0.5 Z"/></g>
<g><path style="opacity:1" fill="#006600" d="M 245.5,-0.5 C 246.167,-0.5 246.833,-0.5 247.5,-0.5C 247.5,0.833333 247.5,2.16667 247.5,3.5C 247.175,10.6866 247.509,17.6866 248.5,24.5C 247.251,33.4842 247.251,42.4842 248.5,51.5C 249.417,52.1272 250.417,52.4606 251.5,52.5C 251.5,52.8333 251.5,53.1667 251.5,53.5C 249.5,53.5 247.5,53.5 245.5,53.5C 243.143,53.6633 240.81,53.4966 238.5,53C 240,52.1667 241.167,51 242,49.5C 242.667,35.1667 242.667,20.8333 242,6.5C 240.638,5.07531 239.138,4.24197 237.5,4C 240.391,2.72576 243.058,1.22576 245.5,-0.5 Z"/></g>
<g><path style="opacity:1" fill="#006600" d="M 333.5,-0.5 C 334.167,-0.5 334.833,-0.5 335.5,-0.5C 335.5,0.833333 335.5,2.16667 335.5,3.5C 335.167,19.5139 335.501,35.5139 336.5,51.5C 337.417,52.1272 338.417,52.4606 339.5,52.5C 339.5,52.8333 339.5,53.1667 339.5,53.5C 337.5,53.5 335.5,53.5 333.5,53.5C 331.143,53.6633 328.81,53.4966 326.5,53C 328.333,52.5 329.5,51.3333 330,49.5C 330.667,35.1667 330.667,20.8333 330,6.5C 329.119,4.72648 327.953,4.05982 326.5,4.5C 328.687,2.57837 331.02,0.911703 333.5,-0.5 Z"/></g>
<g><path style="opacity:1" fill="#066600" d="M 206.5,6.5 C 206.5,8.5 206.5,10.5 206.5,12.5C 206.662,14.5273 206.495,16.5273 206,18.5C 204.806,16.3766 204.14,14.0432 204,11.5C 202.951,9.3825 201.451,7.71583 199.5,6.5C 198.365,4.78679 196.698,4.12012 194.5,4.5C 190.362,4.9732 188.362,7.30653 188.5,11.5C 188.375,16.0549 190.375,19.3882 194.5,21.5C 198.183,25.1803 202.183,28.5136 206.5,31.5C 208.924,37.7525 209.09,44.0858 207,50.5C 205.833,51.6667 204.667,52.8333 203.5,54C 199.848,54.4986 196.182,54.6653 192.5,54.5C 191.22,53.0687 189.553,52.4021 187.5,52.5C 187.44,51.9569 187.107,51.6236 186.5,51.5C 185.833,52.5 185.167,53.5 184.5,54.5C 183.336,48.5276 183.17,42.5276 184,36.5C 185.184,39.9419 186.35,43.2752 187.5,46.5C 188.5,48.1667 189.833,49.5 191.5,50.5C 201.685,53.1463 205.518,49.1463 203,38.5C 197.957,33.7879 192.623,29.4546 187,25.5C 181.587,16.6252 182.754,8.79187 190.5,2C 194.783,1.37331 198.949,1.87331 203,3.5C 204.653,3.18022 205.653,2.18022 206,0.5C 206.495,2.4727 206.662,4.4727 206.5,6.5 Z"/></g>
<g><path style="opacity:1" fill="#0e6600" d="M -0.5,3.5 C -0.5,3.16667 -0.5,2.83333 -0.5,2.5C 3.82738,2.01568 7.82738,2.68235 11.5,4.5C 15.2337,17.0339 19.567,29.3672 24.5,41.5C 25.3624,40.2342 26.0291,38.9008 26.5,37.5C 29.5853,25.9919 33.2519,14.6585 37.5,3.5C 41.122,2.3414 44.7887,2.17473 48.5,3C 47.2625,3.23209 46.2625,3.73209 45.5,4.5C 44.8826,4.61071 44.3826,4.94404 44,5.5C 43.3333,20.5 43.3333,35.5 44,50.5C 45.0113,51.3366 46.1779,51.67 47.5,51.5C 48.3382,51.8417 48.6716,52.5084 48.5,53.5C 45.8333,53.5 43.1667,53.5 40.5,53.5C 37.7531,53.8134 35.0865,53.48 32.5,52.5C 33.9905,51.7564 35.4905,51.0897 37,50.5C 37.4997,42.8406 37.6664,35.1739 37.5,27.5C 37.5,24.5 37.5,21.5 37.5,18.5C 37.6621,16.4727 37.4955,14.4727 37,12.5C 33.3191,22.7069 30.1525,33.0403 27.5,43.5C 25.9281,46.2154 24.9281,49.2154 24.5,52.5C 23.603,53.5981 22.7697,53.5981 22,52.5C 18.7219,42.9689 15.2219,33.6356 11.5,24.5C 10.9782,21.4318 10.1449,18.4318 9,15.5C 8.50013,27.4954 8.33346,39.4954 8.5,51.5C 9.5,51.5 10.5,51.5 11.5,51.5C 12.3382,51.8417 12.6716,52.5084 12.5,53.5C 10.8333,53.5 9.16667,53.5 7.5,53.5C 4.83333,53.5 2.16667,53.5 -0.5,53.5C -0.5,52.8333 -0.5,52.1667 -0.5,51.5C 1.14387,51.7135 2.64387,51.3802 4,50.5C 4.66667,35.8333 4.66667,21.1667 4,6.5C 3.09216,4.56138 1.59216,3.56138 -0.5,3.5 Z"/></g>
<g><path style="opacity:1" fill="#bfc0bf" d="M 61.5,2.5 C 63.7012,2.85839 65.0345,4.19172 65.5,6.5C 63.8666,10.0079 61.8666,10.3412 59.5,7.5C 60.4408,5.95047 61.1075,4.2838 61.5,2.5 Z"/></g>
<g><path style="opacity:1" fill="#bfc0bf" d="M 94.5,49.5 C 93.1779,49.67 92.0113,49.3366 91,48.5C 90.5001,33.8371 90.3334,19.1705 90.5,4.5C 91.7206,3.97168 92.8873,3.30501 94,2.5C 94.4999,18.1631 94.6666,33.8298 94.5,49.5 Z"/></g>
<g><path style="opacity:1" fill="#bfc0bf" d="M 123.5,49.5 C 122.178,49.67 121.011,49.3366 120,48.5C 119.5,33.8371 119.333,19.1705 119.5,4.5C 120.721,3.97168 121.887,3.30501 123,2.5C 123.5,18.1631 123.667,33.8298 123.5,49.5 Z"/></g>
<g><path style="opacity:1" fill="#bfc0bf" d="M 138.5,52.5 C 136.983,52.4894 135.816,51.8228 135,50.5C 134.5,35.1703 134.333,19.837 134.5,4.5C 135.721,3.97168 136.887,3.30501 138,2.5C 138.5,19.1633 138.667,35.83 138.5,52.5 Z"/></g>
<g><path style="opacity:1" fill="#bfc0bf" d="M 251.5,18.5 C 250.471,20.5168 249.471,22.5168 248.5,24.5C 247.509,17.6866 247.175,10.6866 247.5,3.5C 248.583,3.46056 249.583,3.12723 250.5,2.5C 251.495,7.79207 251.828,13.1254 251.5,18.5 Z"/></g>
<g><path style="opacity:1" fill="#bfc0bf" d="M 339.5,52.5 C 338.417,52.4606 337.417,52.1272 336.5,51.5C 335.501,35.5139 335.167,19.5139 335.5,3.5C 336.583,3.46056 337.583,3.12723 338.5,2.5C 339.499,19.1533 339.833,35.82 339.5,52.5 Z"/></g>
<g><path style="opacity:1" fill="#7a7303" d="M -0.5,3.5 C 1.59216,3.56138 3.09216,4.56138 4,6.5C 4.66667,21.1667 4.66667,35.8333 4,50.5C 2.64387,51.3802 1.14387,51.7135 -0.5,51.5C -0.5,35.5 -0.5,19.5 -0.5,3.5 Z"/></g>
<g><path style="opacity:1" fill="#bfc0bf" d="M 206.5,12.5 C 206.5,10.5 206.5,8.5 206.5,6.5C 208.411,6.4257 209.578,5.4257 210,3.5C 210.667,9.5 210.667,15.5 210,21.5C 209.044,18.3535 207.877,15.3535 206.5,12.5 Z"/></g>
<g><path style="opacity:1" fill="#bfc0bf" d="M 11.5,4.5 C 13.1238,4.36007 14.2904,5.02674 15,6.5C 18.5676,17.0478 22.401,27.3811 26.5,37.5C 26.0291,38.9008 25.3624,40.2342 24.5,41.5C 19.567,29.3672 15.2337,17.0339 11.5,4.5 Z"/></g>
<g><path style="opacity:1" fill="#bfc0bf" d="M 45.5,4.5 C 47.924,4.19244 50.2573,4.52577 52.5,5.5C 50.8068,6.22833 49.3068,7.22833 48,8.5C 47.5001,22.8295 47.3334,37.1628 47.5,51.5C 46.1779,51.67 45.0113,51.3366 44,50.5C 43.3333,35.5 43.3333,20.5 44,5.5C 44.3826,4.94404 44.8826,4.61071 45.5,4.5 Z"/></g>
<g><path style="opacity:1" fill="#7a7303" d="M 194.5,4.5 C 191.8,6.23438 189.8,8.56772 188.5,11.5C 188.362,7.30653 190.362,4.9732 194.5,4.5 Z"/></g>
<g><path style="opacity:1" fill="#bfc0bf" d="M 194.5,4.5 C 196.698,4.12012 198.365,4.78679 199.5,6.5C 194.475,7.01508 191.809,9.84841 191.5,15C 192.412,17.2508 193.412,19.4175 194.5,21.5C 190.375,19.3882 188.375,16.0549 188.5,11.5C 189.8,8.56772 191.8,6.23438 194.5,4.5 Z"/></g>
<g><path style="opacity:1" fill="#7a7303" d="M 37.5,18.5 C 34.3153,26.0317 31.6486,33.865 29.5,42C 29.1639,43.0299 28.4972,43.5299 27.5,43.5C 30.1525,33.0403 33.3191,22.7069 37,12.5C 37.4955,14.4727 37.6621,16.4727 37.5,18.5 Z"/></g>
<g><path style="opacity:1" fill="#bfc0bf" d="M 11.5,24.5 C 11.5,33.5 11.5,42.5 11.5,51.5C 10.5,51.5 9.5,51.5 8.5,51.5C 8.33346,39.4954 8.50013,27.4954 9,15.5C 10.1449,18.4318 10.9782,21.4318 11.5,24.5 Z"/></g>
<g><path style="opacity:1" fill="#006600" d="M 60.5,22.5 C 60.3335,31.8393 60.5002,41.1726 61,50.5C 61.8159,51.8228 62.9826,52.4894 64.5,52.5C 64.5,52.8333 64.5,53.1667 64.5,53.5C 62.8333,53.5 61.1667,53.5 59.5,53.5C 56.8127,53.6641 54.146,53.4974 51.5,53C 52.5,52.5 53.5,52 54.5,51.5C 55.6654,42.1845 55.8321,32.8511 55,23.5C 53.8647,23.273 52.698,22.9396 51.5,22.5C 54.2511,20.7073 57.0844,19.0406 60,17.5C 60.4935,19.1341 60.6602,20.8008 60.5,22.5 Z"/></g>
<g><path style="opacity:1" fill="#0d6600" d="M 162.5,22.5 C 163.643,25.5023 163.643,28.5023 162.5,31.5C 157.19,32.6557 151.856,32.6557 146.5,31.5C 145.19,38.1922 147.19,43.5255 152.5,47.5C 158.405,49.1157 161.905,46.7823 163,40.5C 163.657,44.1916 162.824,47.5249 160.5,50.5C 158.218,54.0912 154.884,55.4245 150.5,54.5C 147.096,52.4231 144.596,49.4231 143,45.5C 141.192,37.9603 141.859,30.627 145,23.5C 150.431,15.8488 156.265,15.5154 162.5,22.5 Z"/></g>
<g><path style="opacity:1" fill="#016600" d="M 233.5,21.5 C 234.767,24.272 234.767,26.9387 233.5,29.5C 232.178,29.67 231.011,29.3366 230,28.5C 229.802,26.6183 229.302,24.9516 228.5,23.5C 228.672,22.5084 228.338,21.8417 227.5,21.5C 226.054,20.3871 224.387,20.2204 222.5,21C 220.798,23.2354 219.798,25.7354 219.5,28.5C 218.054,34.7817 218.888,40.7817 222,46.5C 222.816,47.8228 223.983,48.4894 225.5,48.5C 230.53,48.1567 233.697,45.49 235,40.5C 235.667,42.1667 235.667,43.8333 235,45.5C 233.606,47.3875 232.44,49.3875 231.5,51.5C 229.155,54.075 226.155,55.075 222.5,54.5C 219.096,52.4231 216.596,49.4231 215,45.5C 214.685,42.6285 214.185,39.7952 213.5,37C 212.921,26.6374 217.587,20.1374 227.5,17.5C 229.529,18.8435 231.529,20.1769 233.5,21.5 Z"/></g>
<g><path style="opacity:1" fill="#006600" d="M 260.5,20.5 C 262.164,30.3866 262.997,40.3866 263,50.5C 263.816,51.8228 264.983,52.4894 266.5,52.5C 266.5,52.8333 266.5,53.1667 266.5,53.5C 264.5,53.5 262.5,53.5 260.5,53.5C 258.143,53.6633 255.81,53.4966 253.5,53C 254.5,52.5 255.5,52 256.5,51.5C 257.821,42.6755 257.821,34.0088 256.5,25.5C 256.167,24.5 255.5,23.8333 254.5,23.5C 253.652,22.375 252.652,22.375 251.5,23.5C 250.391,23.5569 249.391,23.8902 248.5,24.5C 249.471,22.5168 250.471,20.5168 251.5,18.5C 253.144,18.7135 254.644,18.3802 256,17.5C 257.615,18.3862 259.115,19.3862 260.5,20.5 Z"/></g>
<g><path style="opacity:1" fill="#026600" d="M 288.5,21.5 C 293.762,29.4057 294.762,37.739 291.5,46.5C 290.079,50.0389 287.745,52.7056 284.5,54.5C 282.5,54.5 280.5,54.5 278.5,54.5C 272.926,52.0503 269.759,47.717 269,41.5C 267.627,33.119 269.794,25.7857 275.5,19.5C 280.349,16.7823 284.682,17.449 288.5,21.5 Z"/></g>
<g><path style="opacity:1" fill="#006600" d="M 317.5,21.5 C 322.845,29.2576 323.845,37.591 320.5,46.5C 319.625,48.5681 318.459,50.5681 317,52.5C 315.378,53.0989 313.878,53.7656 312.5,54.5C 310.833,54.5 309.167,54.5 307.5,54.5C 301.998,51.8264 298.665,47.4931 297.5,41.5C 297.5,38.8333 297.5,36.1667 297.5,33.5C 298.768,28.2976 301.101,23.631 304.5,19.5C 309.312,16.7648 313.646,17.4314 317.5,21.5 Z"/></g>
<g><path style="opacity:1" fill="#bfc0bf" d="M 37.5,18.5 C 37.5,21.5 37.5,24.5 37.5,27.5C 33.868,36.5608 30.7013,45.8941 28,55.5C 27.6667,55.8333 27.3333,56.1667 27,56.5C 26.0656,55.1416 25.2323,53.8083 24.5,52.5C 24.9281,49.2154 25.9281,46.2154 27.5,43.5C 28.4972,43.5299 29.1639,43.0299 29.5,42C 31.6486,33.865 34.3153,26.0317 37.5,18.5 Z"/></g>
<g><path style="opacity:1" fill="#bfc0bf" d="M 64.5,52.5 C 62.9826,52.4894 61.8159,51.8228 61,50.5C 60.5002,41.1726 60.3335,31.8393 60.5,22.5C 61.7206,21.9717 62.8873,21.305 64,20.5C 64.4998,31.1615 64.6665,41.8281 64.5,52.5 Z"/></g>
<g><path style="opacity:1" fill="#7a7303" d="M 81.5,21.5 C 78.7515,22.974 76.4182,24.974 74.5,27.5C 74.6561,22.3101 76.9895,20.3101 81.5,21.5 Z"/></g>
<g><path style="opacity:1" fill="#7a7303" d="M 110.5,21.5 C 107.751,22.974 105.418,24.974 103.5,27.5C 103.656,22.3101 105.989,20.3101 110.5,21.5 Z"/></g>
<g><path style="opacity:1" fill="#7a7303" d="M 153.5,21.5 C 151.115,23.8838 149.115,26.5505 147.5,29.5C 146.876,29.0831 146.543,28.4164 146.5,27.5C 147.385,24.3853 149.218,22.052 152,20.5C 152.765,20.5699 153.265,20.9033 153.5,21.5 Z"/></g>
<g><path style="opacity:1" fill="#7a7303" d="M 227.5,21.5 C 224.21,23.1236 221.543,25.4569 219.5,28.5C 219.798,25.7354 220.798,23.2354 222.5,21C 224.387,20.2204 226.054,20.3871 227.5,21.5 Z"/></g>
<g><path style="opacity:1" fill="#bfc0bf" d="M 260.5,20.5 C 264.063,22.261 265.897,25.261 266,29.5C 266.5,37.1594 266.666,44.8261 266.5,52.5C 264.983,52.4894 263.816,51.8228 263,50.5C 262.997,40.3866 262.164,30.3866 260.5,20.5 Z"/></g>
<g><path style="opacity:1" fill="#7a7303" d="M 281.5,21.5 C 280.279,22.0283 279.113,22.695 278,23.5C 276.726,26.3911 275.226,29.0578 273.5,31.5C 273.55,26.4543 275.716,22.7876 280,20.5C 280.765,20.5699 281.265,20.9033 281.5,21.5 Z"/></g>
<g><path style="opacity:1" fill="#7a7303" d="M 310.5,21.5 C 309.279,22.0283 308.113,22.695 307,23.5C 305.726,26.3911 304.226,29.0578 302.5,31.5C 302.55,26.4543 304.716,22.7876 309,20.5C 309.765,20.5699 310.265,20.9033 310.5,21.5 Z"/></g>
<g><path style="opacity:1" fill="#bfc0bf" d="M 81.5,21.5 C 82.4916,21.3284 83.1583,21.6618 83.5,22.5C 80.7687,24.0714 78.9354,26.4048 78,29.5C 76.7248,36.8511 77.5582,43.8511 80.5,50.5C 76.7123,49.3085 74.5456,46.6418 74,42.5C 73.2742,37.4477 73.4409,32.4477 74.5,27.5C 76.4182,24.974 78.7515,22.974 81.5,21.5 Z"/></g>
<g><path style="opacity:1" fill="#bfc0bf" d="M 110.5,21.5 C 111.492,21.3284 112.158,21.6618 112.5,22.5C 107.631,26.412 105.298,31.5787 105.5,38C 105.938,42.493 107.271,46.6597 109.5,50.5C 105.712,49.3085 103.546,46.6418 103,42.5C 102.661,39.964 102.161,37.464 101.5,35C 102.249,32.5034 102.916,30.0034 103.5,27.5C 105.418,24.974 107.751,22.974 110.5,21.5 Z"/></g>
<g><path style="opacity:1" fill="#bfc0bf" d="M 153.5,21.5 C 155.027,21.427 156.027,22.0937 156.5,23.5C 153.522,24.4777 151.522,26.4777 150.5,29.5C 149.5,29.5 148.5,29.5 147.5,29.5C 149.115,26.5505 151.115,23.8838 153.5,21.5 Z"/></g>
<g><path style="opacity:1" fill="#bfc0bf" d="M 227.5,21.5 C 228.338,21.8417 228.672,22.5084 228.5,23.5C 226.248,23.9156 224.748,25.249 224,27.5C 221.782,34.7376 222.282,41.7376 225.5,48.5C 223.983,48.4894 222.816,47.8228 222,46.5C 218.888,40.7817 218.054,34.7817 219.5,28.5C 221.543,25.4569 224.21,23.1236 227.5,21.5 Z"/></g>
<g><path style="opacity:1" fill="#bfc0bf" d="M 233.5,21.5 C 237.683,23.4018 239.349,26.7351 238.5,31.5C 236.219,31.9227 234.552,31.256 233.5,29.5C 234.767,26.9387 234.767,24.272 233.5,21.5 Z"/></g>
<g><path style="opacity:1" fill="#bfc0bf" d="M 281.5,21.5 C 282.167,21.8333 282.833,22.1667 283.5,22.5C 278.19,27.6176 276.356,33.9509 278,41.5C 279.026,44.8017 279.86,48.1351 280.5,51.5C 278.549,50.7177 277.049,49.3844 276,47.5C 274.522,42.2573 273.688,36.924 273.5,31.5C 275.226,29.0578 276.726,26.3911 278,23.5C 279.113,22.695 280.279,22.0283 281.5,21.5 Z"/></g>
<g><path style="opacity:1" fill="#bfc0bf" d="M 288.5,21.5 C 290.371,21.8588 291.871,22.8588 293,24.5C 294.546,27.5919 296.046,30.5919 297.5,33.5C 297.5,36.1667 297.5,38.8333 297.5,41.5C 296.728,46.5438 294.728,51.0438 291.5,55C 286.877,58.3703 282.544,58.2037 278.5,54.5C 280.5,54.5 282.5,54.5 284.5,54.5C 289.649,54.3489 291.982,51.6822 291.5,46.5C 294.762,37.739 293.762,29.4057 288.5,21.5 Z"/></g>
<g><path style="opacity:1" fill="#bfc0bf" d="M 310.5,21.5 C 311.167,21.8333 311.833,22.1667 312.5,22.5C 307.19,27.6176 305.356,33.9509 307,41.5C 307.303,44.9991 308.136,48.3324 309.5,51.5C 306.994,50.1848 305.161,48.1848 304,45.5C 303.171,40.8627 302.671,36.196 302.5,31.5C 304.226,29.0578 305.726,26.3911 307,23.5C 308.113,22.695 309.279,22.0283 310.5,21.5 Z"/></g>
<g><path style="opacity:1" fill="#bfc0bf" d="M 317.5,21.5 C 319.371,21.8588 320.871,22.8588 322,24.5C 327.857,34.1395 327.857,43.8062 322,53.5C 317.255,58.1782 312.421,58.5115 307.5,54.5C 309.167,54.5 310.833,54.5 312.5,54.5C 318.167,54.8333 320.833,52.1667 320.5,46.5C 323.845,37.591 322.845,29.2576 317.5,21.5 Z"/></g>
<g><path style="opacity:1" fill="#7a7303" d="M 83.5,22.5 C 84.4098,24.0188 85.2432,25.6854 86,27.5C 86.6667,34.1667 86.6667,40.8333 86,47.5C 84.7365,49.607 82.9032,50.607 80.5,50.5C 77.5582,43.8511 76.7248,36.8511 78,29.5C 78.9354,26.4048 80.7687,24.0714 83.5,22.5 Z"/></g>
<g><path style="opacity:1" fill="#7a7303" d="M 112.5,22.5 C 112.987,23.4734 113.487,24.4734 114,25.5C 114.667,33.1667 114.667,40.8333 114,48.5C 112.89,50.0368 111.39,50.7035 109.5,50.5C 107.271,46.6597 105.938,42.493 105.5,38C 105.298,31.5787 107.631,26.412 112.5,22.5 Z"/></g>
<g><path style="opacity:1" fill="#bfc0bf" d="M 162.5,22.5 C 166.868,25.2737 168.535,29.2737 167.5,34.5C 161.463,34.1707 155.463,34.5041 149.5,35.5C 150.133,39.6144 151.133,43.6144 152.5,47.5C 147.19,43.5255 145.19,38.1922 146.5,31.5C 151.856,32.6557 157.19,32.6557 162.5,31.5C 163.643,28.5023 163.643,25.5023 162.5,22.5 Z"/></g>
<g><path style="opacity:1" fill="#7a7303" d="M 254.5,23.5 C 253.326,24.5137 252.66,25.847 252.5,27.5C 251.566,26.4324 251.232,25.099 251.5,23.5C 252.652,22.375 253.652,22.375 254.5,23.5 Z"/></g>
<g><path style="opacity:1" fill="#7a7303" d="M 283.5,22.5 C 286.038,25.2452 287.538,28.5785 288,32.5C 288.892,38.6886 288.226,44.6886 286,50.5C 284.301,51.4061 282.467,51.7394 280.5,51.5C 279.86,48.1351 279.026,44.8017 278,41.5C 276.356,33.9509 278.19,27.6176 283.5,22.5 Z"/></g>
<g><path style="opacity:1" fill="#7a7303" d="M 312.5,22.5 C 314.41,23.9746 315.576,25.9746 316,28.5C 317.972,35.9423 317.639,43.2756 315,50.5C 313.301,51.4061 311.467,51.7394 309.5,51.5C 308.136,48.3324 307.303,44.9991 307,41.5C 305.356,33.9509 307.19,27.6176 312.5,22.5 Z"/></g>
<g><path style="opacity:1" fill="#7a7303" d="M 156.5,23.5 C 157.461,25.2646 157.795,27.2646 157.5,29.5C 155.167,29.5 152.833,29.5 150.5,29.5C 151.522,26.4777 153.522,24.4777 156.5,23.5 Z"/></g>
<g><path style="opacity:1" fill="#bfc0bf" d="M 251.5,23.5 C 251.232,25.099 251.566,26.4324 252.5,27.5C 251.56,35.7788 251.227,44.1122 251.5,52.5C 250.417,52.4606 249.417,52.1272 248.5,51.5C 247.251,42.4842 247.251,33.4842 248.5,24.5C 249.391,23.8902 250.391,23.5569 251.5,23.5 Z"/></g>
<g><path style="opacity:1" fill="#bfc0bf" d="M 254.5,23.5 C 255.5,23.8333 256.167,24.5 256.5,25.5C 254.938,25.7329 253.605,26.3995 252.5,27.5C 252.66,25.847 253.326,24.5137 254.5,23.5 Z"/></g>
<g><path style="opacity:1" fill="#bfc0bf" d="M 206.5,31.5 C 212.149,36.1717 213.982,42.1717 212,49.5C 207.248,58.1531 200.748,59.8198 192.5,54.5C 196.182,54.6653 199.848,54.4986 203.5,54C 204.667,52.8333 205.833,51.6667 207,50.5C 209.09,44.0858 208.924,37.7525 206.5,31.5 Z"/></g>
<g><path style="opacity:1" fill="#bfc0bf" d="M 191.5,50.5 C 189.833,49.5 188.5,48.1667 187.5,46.5C 187.337,44.1432 187.503,41.8098 188,39.5C 189.323,43.1267 190.489,46.7934 191.5,50.5 Z"/></g>
<g><path style="opacity:1" fill="#bfc0bf" d="M 222.5,54.5 C 226.155,55.075 229.155,54.075 231.5,51.5C 235.622,49.8758 238.122,46.8758 239,42.5C 239.166,47.4141 237.666,51.9141 234.5,56C 230.034,58.3734 226.034,57.8734 222.5,54.5 Z"/></g>
<g><path style="opacity:1" fill="#bfc0bf" d="M 150.5,54.5 C 154.884,55.4245 158.218,54.0912 160.5,50.5C 164.015,49.5047 166.181,47.1714 167,43.5C 167.518,50.9743 164.184,55.641 157,57.5C 154.454,57.1414 152.287,56.1414 150.5,54.5 Z"/></g>
<g><path style="opacity:1" fill="#7a7303" d="M 291.5,46.5 C 291.982,51.6822 289.649,54.3489 284.5,54.5C 287.745,52.7056 290.079,50.0389 291.5,46.5 Z"/></g>
<g><path style="opacity:1" fill="#7a7303" d="M 320.5,46.5 C 320.833,52.1667 318.167,54.8333 312.5,54.5C 313.878,53.7656 315.378,53.0989 317,52.5C 318.459,50.5681 319.625,48.5681 320.5,46.5 Z"/></g>
<g><path style="opacity:1" fill="#bfc0bf" d="M 94.5,50.5 C 95.8311,51.9879 97.1645,52.6545 98.5,52.5C 97.0186,53.4803 95.6853,54.647 94.5,56C 91.511,58.2723 90.1776,57.439 90.5,53.5C 91.8717,52.4884 93.205,51.4884 94.5,50.5 Z"/></g>
<g><path style="opacity:1" fill="#bfc0bf" d="M 123.5,50.5 C 124.167,51.1667 124.833,51.8333 125.5,52.5C 125.5,52.8333 125.5,53.1667 125.5,53.5C 123.948,56.1119 121.614,57.4452 118.5,57.5C 118.5,56.5 118.5,55.5 118.5,54.5C 120.167,53.1667 121.833,51.8333 123.5,50.5 Z"/></g>
<g><path style="opacity:1" fill="#bfc0bf" d="M 88.5,54.5 C 84.5,58.5 80.5,58.5 76.5,54.5C 79.5279,54.6611 82.3612,53.9944 85,52.5C 86.0769,53.4295 87.2436,54.0962 88.5,54.5 Z"/></g>
<g><path style="opacity:1" fill="#bfc0bf" d="M 117.5,54.5 C 113.5,58.5 109.5,58.5 105.5,54.5C 108.39,54.722 111.057,54.0553 113.5,52.5C 114.524,53.8532 115.857,54.5198 117.5,54.5 Z"/></g>
<g><path style="opacity:1" fill="#bfc0bf" d="M 187.5,52.5 C 189.553,52.4021 191.22,53.0687 192.5,54.5C 191.5,54.5 190.5,54.5 189.5,54.5C 189.719,55.675 189.386,56.675 188.5,57.5C 187.548,55.9547 187.215,54.288 187.5,52.5 Z"/></g>
<g><path style="opacity:1" fill="#bfc0bf" d="M 7.5,53.5 C 9.16667,53.5 10.8333,53.5 12.5,53.5C 13.7175,54.1614 15.0508,54.8281 16.5,55.5C 12.1667,56.8333 7.83333,56.8333 3.5,55.5C 4.94916,54.8281 6.2825,54.1614 7.5,53.5 Z"/></g>
<g><path style="opacity:1" fill="#bfc0bf" d="M 40.5,53.5 C 43.1667,53.5 45.8333,53.5 48.5,53.5C 49.7175,54.1614 51.0508,54.8281 52.5,55.5C 47.1667,56.8333 41.8333,56.8333 36.5,55.5C 37.9492,54.8281 39.2825,54.1614 40.5,53.5 Z"/></g>
<g><path style="opacity:1" fill="#bfc0bf" d="M 59.5,53.5 C 61.1667,53.5 62.8333,53.5 64.5,53.5C 65.9008,53.9709 67.2342,54.6376 68.5,55.5C 64.1667,56.8333 59.8333,56.8333 55.5,55.5C 56.9492,54.8281 58.2825,54.1614 59.5,53.5 Z"/></g>
<g><path style="opacity:1" fill="#bfc0bf" d="M 132.5,53.5 C 134.5,53.5 136.5,53.5 138.5,53.5C 139.901,53.9709 141.234,54.6376 142.5,55.5C 138.167,56.8333 133.833,56.8333 129.5,55.5C 130.602,54.8243 131.602,54.1577 132.5,53.5 Z"/></g>
<g><path style="opacity:1" fill="#bfc0bf" d="M 245.5,53.5 C 247.5,53.5 249.5,53.5 251.5,53.5C 252.718,54.1614 254.051,54.8281 255.5,55.5C 251.167,56.8333 246.833,56.8333 242.5,55.5C 243.602,54.8243 244.602,54.1577 245.5,53.5 Z"/></g>
<g><path style="opacity:1" fill="#bfc0bf" d="M 260.5,53.5 C 262.5,53.5 264.5,53.5 266.5,53.5C 267.901,53.9709 269.234,54.6376 270.5,55.5C 266.167,56.8333 261.833,56.8333 257.5,55.5C 258.602,54.8243 259.602,54.1577 260.5,53.5 Z"/></g>
<g><path style="opacity:1" fill="#bfc0bf" d="M 333.5,53.5 C 335.5,53.5 337.5,53.5 339.5,53.5C 340.718,54.1614 342.051,54.8281 343.5,55.5C 339.167,56.8333 334.833,56.8333 330.5,55.5C 331.602,54.8243 332.602,54.1577 333.5,53.5 Z"/></g>
</svg>
