<?xml version="1.0" encoding="UTF-8"?>
<!DOCTYPE svg PUBLIC "-//W3C//DTD SVG 1.1//EN" "http://www.w3.org/Graphics/SVG/1.1/DTD/svg11.dtd">
<svg xmlns="http://www.w3.org/2000/svg" version="1.1" width="345px" height="59px" style="shape-rendering:geometricPrecision; text-rendering:geometricPrecision; image-rendering:optimizeQuality; fill-rule:evenodd; clip-rule:evenodd" xmlns:xlink="http://www.w3.org/1999/xlink">
<g><path style="opacity:1" fill="#7b7304" d="M -0.5,-0.5 C 21.1667,-0.5 42.8333,-0.5 64.5,-0.5C 62.5193,1.14361 60.5193,2.81027 58.5,4.5C 58.9377,5.50633 59.6043,5.50633 60.5,4.5C 61.2508,5.37598 61.7508,6.37598 62,7.5C 62.6667,21.5 62.6667,35.5 62,49.5C 61.5348,50.9308 60.7014,52.0975 59.5,53C 61.4727,53.4955 63.4727,53.6621 65.5,53.5C 64.9094,54.1515 64.2427,54.8182 63.5,55.5C 66.8333,56.8333 70.1667,56.8333 73.5,55.5C 72.675,54.6143 71.675,54.281 70.5,54.5C 69.7226,37.1909 69.2226,19.8576 69,2.5C 67.8873,3.30501 66.7206,3.97168 65.5,4.5C 65.5,2.83333 65.5,1.16667 65.5,-0.5C 98.1667,-0.5 130.833,-0.5 163.5,-0.5C 160.487,3.13583 161.153,5.8025 165.5,7.5C 170.045,10.2975 171.378,8.96415 169.5,3.5C 168.675,2.61432 167.675,2.28099 166.5,2.5C 165.89,1.60895 165.557,0.608953 165.5,-0.5C 176.167,-0.5 186.833,-0.5 197.5,-0.5C 195.519,1.14361 193.519,2.81027 191.5,4.5C 192.247,4.73647 193.08,5.0698 194,5.5C 194.667,20.8333 194.667,36.1667 194,51.5C 193.329,52.2524 192.496,52.5858 191.5,52.5C 193.19,49.3598 193.69,46.0265 193,42.5C 192.758,47.0132 190.592,50.0132 186.5,51.5C 188.68,48.1289 189.514,44.4622 189,40.5C 188.83,44.957 186.663,47.6237 182.5,48.5C 179.282,41.7376 178.782,34.7376 181,27.5C 181.66,25.6763 182.827,24.343 184.5,23.5C 183.599,27.2407 184.932,29.2407 188.5,29.5C 189.183,31.1765 190.517,31.8432 192.5,31.5C 193.349,26.7351 191.683,23.4018 187.5,21.5C 183.274,16.609 179.108,16.9423 175,22.5C 174.138,24.087 173.471,25.7536 173,27.5C 172.333,33.5 172.333,39.5 173,45.5C 173.725,47.9494 174.725,50.2827 176,52.5C 176.816,53.8228 177.983,54.4894 179.5,54.5C 181.013,56.2413 183.013,57.2413 185.5,57.5C 187.765,56.5684 189.765,55.2351 191.5,53.5C 193.833,53.5 196.167,53.5 198.5,53.5C 197.602,54.1577 196.602,54.8243 195.5,55.5C 199.167,56.8333 202.833,56.8333 206.5,55.5C 205.398,54.8243 204.398,54.1577 203.5,53.5C 205.833,53.5 208.167,53.5 210.5,53.5C 209.602,54.1577 208.602,54.8243 207.5,55.5C 211.167,56.8333 214.833,56.8333 218.5,55.5C 217.675,54.6143 216.675,54.281 215.5,54.5C 216.025,43.702 215.192,33.0354 213,22.5C 212.184,21.1772 211.017,20.5106 209.5,20.5C 207.533,17.1712 205.2,16.8379 202.5,19.5C 202.666,13.8236 202.499,8.15688 202,2.5C 200.887,3.30501 199.721,3.97168 198.5,4.5C 198.5,2.83333 198.5,1.16667 198.5,-0.5C 222.167,-0.5 245.833,-0.5 269.5,-0.5C 267.519,1.14361 265.519,2.81027 263.5,4.5C 264.953,4.05982 266.119,4.72648 267,6.5C 267.667,11.1667 267.667,15.8333 267,20.5C 265.758,19.1279 264.258,18.1279 262.5,17.5C 259.507,18.8334 257.173,20.8334 255.5,23.5C 254.738,21.7376 253.404,20.7376 251.5,20.5C 248.796,16.4573 246.463,16.7906 244.5,21.5C 243.833,21.8333 243.167,22.1667 242.5,22.5C 242.66,20.8008 242.494,19.1341 242,17.5C 239.667,19.0062 237.5,20.6729 235.5,22.5C 236.953,22.0598 238.119,22.7265 239,24.5C 239.667,33.1667 239.667,41.8333 239,50.5C 238.292,51.3805 237.458,52.0472 236.5,52.5C 235.89,51.609 235.557,50.609 235.5,49.5C 235.5,48.8333 235.5,48.1667 235.5,47.5C 235.906,39.0826 235.406,30.7492 234,22.5C 232.887,21.695 231.721,21.0283 230.5,20.5C 225.243,16.1868 221.077,17.1868 218,23.5C 217.149,26.053 217.482,28.3863 219,30.5C 220.246,27.6392 221.246,24.6392 222,21.5C 223.292,20.2089 224.458,20.2089 225.5,21.5C 221.991,24.2391 220.657,27.9057 221.5,32.5C 222.5,32.5 223.5,32.5 224.5,32.5C 223.925,28.8453 224.925,25.8453 227.5,23.5C 227.664,26.1873 227.497,28.854 227,31.5C 223.044,33.7881 219.711,36.7881 217,40.5C 216.233,44.5935 216.566,48.5935 218,52.5C 218.816,53.8228 219.983,54.4894 221.5,54.5C 224.09,57.0595 226.757,57.0595 229.5,54.5C 230.609,54.4431 231.609,54.1098 232.5,53.5C 232.5,54.5 232.5,55.5 232.5,56.5C 235.313,56.9754 237.313,55.9754 238.5,53.5C 239.833,53.5 241.167,53.5 242.5,53.5C 241.602,54.1577 240.602,54.8243 239.5,55.5C 243.167,56.8333 246.833,56.8333 250.5,55.5C 249.675,54.6143 248.675,54.281 247.5,54.5C 246.52,46.8561 246.353,39.1894 247,31.5C 248.122,29.5932 248.955,27.5932 249.5,25.5C 249.833,25.5 250.167,25.5 250.5,25.5C 251.345,27.7619 252.678,28.4286 254.5,27.5C 251.187,36.746 252.187,45.4127 257.5,53.5C 258.325,54.3857 259.325,54.719 260.5,54.5C 263.596,58.451 266.596,58.451 269.5,54.5C 269.842,53.6618 270.508,53.3284 271.5,53.5C 271.869,58.2129 273.536,58.5462 276.5,54.5C 277.961,53.3143 279.295,53.3143 280.5,54.5C 290.543,59.8585 295.21,56.5252 294.5,44.5C 295.705,47.2341 297.205,49.9007 299,52.5C 299.816,53.8228 300.983,54.4894 302.5,54.5C 306.841,58.613 311.008,58.2797 315,53.5C 319.615,43.8604 319.615,34.1937 315,24.5C 313.871,22.8588 312.371,21.8588 310.5,21.5C 307.509,17.5637 304.009,16.8971 300,19.5C 294.978,26.3306 293.144,33.9973 294.5,42.5C 293.442,41.3998 292.608,40.0664 292,38.5C 291.184,37.1772 290.017,36.5106 288.5,36.5C 286.833,35.5 285.5,34.1667 284.5,32.5C 282.75,28.5818 283.417,25.2485 286.5,22.5C 287.469,24.663 288.302,26.9963 289,29.5C 289.494,27.8659 289.66,26.1992 289.5,24.5C 291.511,26.667 292.678,29.3337 293,32.5C 293.667,28.5 293.667,24.5 293,20.5C 291.989,21.3366 290.822,21.67 289.5,21.5C 289.657,20.1266 289.49,18.7932 289,17.5C 288.612,18.428 287.945,19.0946 287,19.5C 281.472,16.9342 278.138,18.9342 277,25.5C 276.348,28.594 276.682,31.594 278,34.5C 281.37,37.535 284.37,40.8683 287,44.5C 288.421,48.5058 287.254,51.1724 283.5,52.5C 282.969,49.763 282.136,47.0964 281,44.5C 280.505,46.4727 280.338,48.4727 280.5,50.5C 278.828,47.802 277.661,44.802 277,41.5C 276.501,45.1516 276.335,48.8183 276.5,52.5C 275.691,50.7078 275.191,48.7078 275,46.5C 274.667,31.8333 274.333,17.1667 274,2.5C 272.887,3.30501 271.721,3.97168 270.5,4.5C 270.5,2.83333 270.5,1.16667 270.5,-0.5C 295.167,-0.5 319.833,-0.5 344.5,-0.5C 344.5,19.1667 344.5,38.8333 344.5,58.5C 229.5,58.5 114.5,58.5 -0.5,58.5C -0.5,40.1667 -0.5,21.8333 -0.5,3.5C 2.41511,3.91262 4.24844,5.57929 5,8.5C 5.66667,22.5 5.66667,36.5 5,50.5C 4.09748,51.7014 2.93081,52.5348 1.5,53C 3.80982,53.4966 6.14316,53.6633 8.5,53.5C 7.60164,54.1577 6.60164,54.8243 5.5,55.5C 8.83333,56.8333 12.1667,56.8333 15.5,55.5C 14.2342,54.6376 12.9008,53.9709 11.5,53.5C 11.5,53.1667 11.5,52.8333 11.5,52.5C 11.5,42.5 11.5,32.5 11.5,22.5C 16.6999,33.2309 22.1999,43.8976 28,54.5C 28.4828,53.552 28.6495,52.552 28.5,51.5C 29.6444,53.1002 30.8111,54.7669 32,56.5C 32.3333,41.1667 32.6667,25.8333 33,10.5C 33.2715,7.72849 34.7715,6.06182 37.5,5.5C 35.2573,4.52577 32.924,4.19244 30.5,4.5C 31.2625,3.73209 32.2625,3.23209 33.5,3C 29.8333,2.33333 26.1667,2.33333 22.5,3C 24.0609,3.31762 25.2276,4.15095 26,5.5C 26.4998,15.1609 26.6665,24.8276 26.5,34.5C 21.7126,24.9252 16.8793,15.2585 12,5.5C 10.9887,4.66337 9.82207,4.33003 8.5,4.5C 8.38929,3.88258 8.05596,3.38258 7.5,3C 4.85397,2.50258 2.1873,2.33591 -0.5,2.5C -0.5,1.5 -0.5,0.5 -0.5,-0.5 Z"/></g>
<g><path style="opacity:1" fill="#246800" d="M 64.5,-0.5 C 64.8333,-0.5 65.1667,-0.5 65.5,-0.5C 65.5,1.16667 65.5,2.83333 65.5,4.5C 66.0691,20.1616 66.7358,35.8283 67.5,51.5C 68.3081,51.8076 68.9747,52.3076 69.5,53C 68.2068,53.49 66.8734,53.6567 65.5,53.5C 63.4727,53.6621 61.4727,53.4955 59.5,53C 60.7014,52.0975 61.5348,50.9308 62,49.5C 62.6667,35.5 62.6667,21.5 62,7.5C 61.7508,6.37598 61.2508,5.37598 60.5,4.5C 59.6043,5.50633 58.9377,5.50633 58.5,4.5C 60.5193,2.81027 62.5193,1.14361 64.5,-0.5 Z"/></g>
<g><path style="opacity:1" fill="#006600" d="M 163.5,-0.5 C 164.167,-0.5 164.833,-0.5 165.5,-0.5C 165.557,0.608953 165.89,1.60895 166.5,2.5C 166.634,4.29152 166.301,5.95819 165.5,7.5C 161.153,5.8025 160.487,3.13583 163.5,-0.5 Z"/></g>
<g><path style="opacity:1" fill="#006600" d="M 197.5,-0.5 C 197.833,-0.5 198.167,-0.5 198.5,-0.5C 198.5,1.16667 198.5,2.83333 198.5,4.5C 198.334,11.175 198.5,17.8417 199,24.5C 200.286,22.8172 201.453,21.1506 202.5,19.5C 205.2,16.8379 207.533,17.1712 209.5,20.5C 210.892,30.7656 211.892,41.099 212.5,51.5C 213.308,51.8076 213.975,52.3076 214.5,53C 213.207,53.49 211.873,53.6567 210.5,53.5C 208.167,53.5 205.833,53.5 203.5,53.5C 204.688,52.6364 205.855,51.6364 207,50.5C 207.801,42.0881 207.634,33.7548 206.5,25.5C 206.672,24.5084 206.338,23.8417 205.5,23.5C 204.348,22.375 203.348,22.375 202.5,23.5C 200.827,24.343 199.66,25.6763 199,27.5C 198.333,35.1667 198.333,42.8333 199,50.5C 199.816,51.8228 200.983,52.4894 202.5,52.5C 202.5,52.8333 202.5,53.1667 202.5,53.5C 201.167,53.5 199.833,53.5 198.5,53.5C 196.167,53.5 193.833,53.5 191.5,53.5C 191.5,53.1667 191.5,52.8333 191.5,52.5C 192.496,52.5858 193.329,52.2524 194,51.5C 194.667,36.1667 194.667,20.8333 194,5.5C 193.08,5.0698 192.247,4.73647 191.5,4.5C 193.519,2.81027 195.519,1.14361 197.5,-0.5 Z"/></g>
<g><path style="opacity:1" fill="#156700" d="M 269.5,-0.5 C 269.833,-0.5 270.167,-0.5 270.5,-0.5C 270.5,1.16667 270.5,2.83333 270.5,4.5C 270.174,19.4835 270.507,34.4835 271.5,49.5C 272.675,49.281 273.675,49.6143 274.5,50.5C 273.23,51.2876 272.23,52.2876 271.5,53.5C 270.508,53.3284 269.842,53.6618 269.5,54.5C 268.508,54.6716 267.842,54.3382 267.5,53.5C 267.655,50.1469 266.988,49.8136 265.5,52.5C 264.22,53.9313 262.553,54.5979 260.5,54.5C 259.325,54.719 258.325,54.3857 257.5,53.5C 252.187,45.4127 251.187,36.746 254.5,27.5C 255.234,26.2921 255.567,24.9587 255.5,23.5C 257.173,20.8334 259.507,18.8334 262.5,17.5C 264.258,18.1279 265.758,19.1279 267,20.5C 267.667,15.8333 267.667,11.1667 267,6.5C 266.119,4.72648 264.953,4.05982 263.5,4.5C 265.519,2.81027 267.519,1.14361 269.5,-0.5 Z"/></g>
<g><path style="opacity:1" fill="#006600" d="M -0.5,3.5 C -0.5,3.16667 -0.5,2.83333 -0.5,2.5C 2.1873,2.33591 4.85397,2.50258 7.5,3C 8.05596,3.38258 8.38929,3.88258 8.5,4.5C 14.3201,16.1401 20.1534,27.8068 26,39.5C 26.4935,37.8659 26.6602,36.1992 26.5,34.5C 26.6665,24.8276 26.4998,15.1609 26,5.5C 25.2276,4.15095 24.0609,3.31762 22.5,3C 26.1667,2.33333 29.8333,2.33333 33.5,3C 32.2625,3.23209 31.2625,3.73209 30.5,4.5C 29.596,5.20895 29.2627,6.20895 29.5,7.5C 28.5054,18.3206 28.1721,29.3206 28.5,40.5C 28.5,44.1667 28.5,47.8333 28.5,51.5C 28.6495,52.552 28.4828,53.552 28,54.5C 22.1999,43.8976 16.6999,33.2309 11.5,22.5C 11.3404,20.847 10.6737,19.5137 9.5,18.5C 9.29142,17.0783 8.79142,15.745 8,14.5C 7.33333,26.5 7.33333,38.5 8,50.5C 8.38258,51.056 8.88258,51.3893 9.5,51.5C 9.84171,52.3382 10.5084,52.6716 11.5,52.5C 11.5,52.8333 11.5,53.1667 11.5,53.5C 10.5,53.5 9.5,53.5 8.5,53.5C 6.14316,53.6633 3.80982,53.4966 1.5,53C 2.93081,52.5348 4.09748,51.7014 5,50.5C 5.66667,36.5 5.66667,22.5 5,8.5C 4.24844,5.57929 2.41511,3.91262 -0.5,3.5 Z"/></g>
<g><path style="opacity:1" fill="#bfc0bf" d="M 65.5,53.5 C 66.8734,53.6567 68.2068,53.49 69.5,53C 68.9747,52.3076 68.3081,51.8076 67.5,51.5C 66.7358,35.8283 66.0691,20.1616 65.5,4.5C 66.7206,3.97168 67.8873,3.30501 69,2.5C 69.2226,19.8576 69.7226,37.1909 70.5,54.5C 71.675,54.281 72.675,54.6143 73.5,55.5C 70.1667,56.8333 66.8333,56.8333 63.5,55.5C 64.2427,54.8182 64.9094,54.1515 65.5,53.5 Z"/></g>
<g><path style="opacity:1" fill="#026600" d="M 148.5,5.5 C 152.212,12.0246 152.379,18.6913 149,25.5C 147.457,27.3783 145.624,28.8783 143.5,30C 145.857,34.7325 148.023,39.5658 150,44.5C 151.556,47.693 153.723,50.3597 156.5,52.5C 157.167,52.5 157.5,52.8333 157.5,53.5C 155.833,53.5 154.167,53.5 152.5,53.5C 151.178,53.67 150.011,53.3366 149,52.5C 146.062,45.8451 143.229,39.1785 140.5,32.5C 139.656,30.2407 137.989,29.2407 135.5,29.5C 135.334,35.5092 135.501,41.5092 136,47.5C 136.145,50.4912 137.645,52.1578 140.5,52.5C 140.5,52.8333 140.5,53.1667 140.5,53.5C 138.5,53.5 136.5,53.5 134.5,53.5C 132.143,53.6633 129.81,53.4966 127.5,53C 128.931,52.5348 130.097,51.7014 131,50.5C 131.667,35.5 131.667,20.5 131,5.5C 130.097,4.29857 128.931,3.46524 127.5,3C 133.167,2.33333 138.833,2.33333 144.5,3C 145.693,4.09463 147.027,4.92796 148.5,5.5 Z"/></g>
<g><path style="opacity:1" fill="#bfc0bf" d="M 166.5,2.5 C 167.675,2.28099 168.675,2.61432 169.5,3.5C 171.378,8.96415 170.045,10.2975 165.5,7.5C 166.301,5.95819 166.634,4.29152 166.5,2.5 Z"/></g>
<g><path style="opacity:1" fill="#bfc0bf" d="M 202.5,19.5 C 201.453,21.1506 200.286,22.8172 199,24.5C 198.5,17.8417 198.334,11.175 198.5,4.5C 199.721,3.97168 200.887,3.30501 202,2.5C 202.499,8.15688 202.666,13.8236 202.5,19.5 Z"/></g>
<g><path style="opacity:1" fill="#bfc0bf" d="M 276.5,52.5 C 276.5,53.1667 276.5,53.8333 276.5,54.5C 273.536,58.5462 271.869,58.2129 271.5,53.5C 272.23,52.2876 273.23,51.2876 274.5,50.5C 273.675,49.6143 272.675,49.281 271.5,49.5C 270.507,34.4835 270.174,19.4835 270.5,4.5C 271.721,3.97168 272.887,3.30501 274,2.5C 274.333,17.1667 274.667,31.8333 275,46.5C 275.191,48.7078 275.691,50.7078 276.5,52.5 Z"/></g>
<g><path style="opacity:1" fill="#bfc0bf" d="M 8.5,4.5 C 9.82207,4.33003 10.9887,4.66337 12,5.5C 16.8793,15.2585 21.7126,24.9252 26.5,34.5C 26.6602,36.1992 26.4935,37.8659 26,39.5C 20.1534,27.8068 14.3201,16.1401 8.5,4.5 Z"/></g>
<g><path style="opacity:1" fill="#bfc0bf" d="M 30.5,4.5 C 32.924,4.19244 35.2573,4.52577 37.5,5.5C 34.7715,6.06182 33.2715,7.72849 33,10.5C 32.6667,25.8333 32.3333,41.1667 32,56.5C 30.8111,54.7669 29.6444,53.1002 28.5,51.5C 28.5,47.8333 28.5,44.1667 28.5,40.5C 29.2216,40.9175 29.7216,41.5842 30,42.5C 30.8261,30.6593 30.6595,18.9927 29.5,7.5C 29.2627,6.20895 29.596,5.20895 30.5,4.5 Z"/></g>
<g><path style="opacity:1" fill="#bfc0bf" d="M 143.5,7.5 C 142.417,7.53944 141.417,7.87277 140.5,8.5C 139.504,14.4632 139.171,20.4632 139.5,26.5C 138.432,27.4345 137.099,27.7678 135.5,27.5C 135.5,20.1667 135.5,12.8333 135.5,5.5C 137.857,5.33669 140.19,5.50335 142.5,6C 143.056,6.38258 143.389,6.88258 143.5,7.5 Z"/></g>
<g><path style="opacity:1" fill="#bfc0bf" d="M 148.5,5.5 C 155.414,11.0241 157.247,18.0241 154,26.5C 152.581,29.2956 150.415,31.2956 147.5,32.5C 150.535,39.2296 153.535,45.8962 156.5,52.5C 153.723,50.3597 151.556,47.693 150,44.5C 148.023,39.5658 145.857,34.7325 143.5,30C 145.624,28.8783 147.457,27.3783 149,25.5C 152.379,18.6913 152.212,12.0246 148.5,5.5 Z"/></g>
<g><path style="opacity:1" fill="#7a7303" d="M 29.5,7.5 C 30.6595,18.9927 30.8261,30.6593 30,42.5C 29.7216,41.5842 29.2216,40.9175 28.5,40.5C 28.1721,29.3206 28.5054,18.3206 29.5,7.5 Z"/></g>
<g><path style="opacity:1" fill="#7a7303" d="M 143.5,7.5 C 147.505,13.4459 147.338,19.4459 143,25.5C 141.989,26.3366 140.822,26.67 139.5,26.5C 139.171,20.4632 139.504,14.4632 140.5,8.5C 141.417,7.87277 142.417,7.53944 143.5,7.5 Z"/></g>
<g><path style="opacity:1" fill="#7a7303" d="M 9.5,18.5 C 9.5,29.5 9.5,40.5 9.5,51.5C 8.88258,51.3893 8.38258,51.056 8,50.5C 7.33333,38.5 7.33333,26.5 8,14.5C 8.79142,15.745 9.29142,17.0783 9.5,18.5 Z"/></g>
<g><path style="opacity:1" fill="#006600" d="M 51.5,21.5 C 54.8591,27.9967 56.1925,34.9967 55.5,42.5C 54.6528,47.3839 52.3194,51.3839 48.5,54.5C 47.1667,54.5 45.8333,54.5 44.5,54.5C 40.9258,53.4294 38.4258,51.096 37,47.5C 34.1311,37.4948 35.4644,28.1615 41,19.5C 45.0091,16.8971 48.5091,17.5637 51.5,21.5 Z"/></g>
<g><path style="opacity:1" fill="#036600" d="M 86.5,21.5 C 87.1419,30.7745 87.8085,40.1079 88.5,49.5C 89.5178,48.8075 90.5178,48.1408 91.5,47.5C 91.5,48.1667 91.5,48.8333 91.5,49.5C 89.9373,50.9448 88.604,52.6115 87.5,54.5C 86.8333,54.5 86.1667,54.5 85.5,54.5C 85.0377,53.1201 84.0377,52.4534 82.5,52.5C 80.8228,53.1869 79.1561,53.8535 77.5,54.5C 75.4078,54.4386 73.9078,53.4386 73,51.5C 71.0456,47.0394 71.3789,42.7061 74,38.5C 76.6381,35.6833 79.6381,33.35 83,31.5C 83.4974,28.854 83.6641,26.1873 83.5,23.5C 83.1667,22.5 82.5,21.8333 81.5,21.5C 80.2918,20.218 78.9584,20.218 77.5,21.5C 76.6518,23.4086 76.3184,25.4086 76.5,27.5C 76.5,28.1667 76.5,28.8333 76.5,29.5C 73.9643,30.6715 72.6309,29.6715 72.5,26.5C 73.97,19.6097 77.97,17.1097 84.5,19C 85.3805,19.7083 86.0472,20.5416 86.5,21.5 Z"/></g>
<g><path style="opacity:1" fill="#006600" d="M 98.5,22.5 C 98.2627,23.791 98.596,24.791 99.5,25.5C 98.3941,33.7852 98.2274,42.1185 99,50.5C 99.8159,51.8228 100.983,52.4894 102.5,52.5C 102.5,52.8333 102.5,53.1667 102.5,53.5C 101.167,53.5 99.8333,53.5 98.5,53.5C 96.8333,53.5 95.1667,53.5 93.5,53.5C 92.7611,53.631 92.0944,53.4643 91.5,53C 92.4158,52.7216 93.0825,52.2216 93.5,51.5C 94.6576,42.3425 94.8243,33.0092 94,23.5C 93.0805,23.0698 92.2472,22.7365 91.5,22.5C 93.5,20.6729 95.6667,19.0062 98,17.5C 98.4935,19.1341 98.6602,20.8008 98.5,22.5 Z"/></g>
<g><path style="opacity:1" fill="#006600" d="M 109.5,20.5 C 110.971,30.7505 111.971,41.0838 112.5,51.5C 113.308,51.8076 113.975,52.3076 114.5,53C 113.207,53.49 111.873,53.6567 110.5,53.5C 108.167,53.5 105.833,53.5 103.5,53.5C 104.688,52.6364 105.855,51.6364 107,50.5C 107.823,42.3225 107.656,34.3225 106.5,26.5C 106.737,25.209 106.404,24.209 105.5,23.5C 104.5,22.1667 103.5,22.1667 102.5,23.5C 101.5,24.1667 100.5,24.8333 99.5,25.5C 99.8333,24.1667 100.167,22.8333 100.5,21.5C 102.148,20.1902 103.814,18.8569 105.5,17.5C 106.901,18.5207 108.235,19.5207 109.5,20.5 Z"/></g>
<g><path style="opacity:1" fill="#006600" d="M 166.5,22.5 C 166.168,32.1896 166.502,41.8563 167.5,51.5C 168.308,51.8076 168.975,52.3076 169.5,53C 168.207,53.49 166.873,53.6567 165.5,53.5C 163.5,53.5 161.5,53.5 159.5,53.5C 160.122,52.3734 160.955,51.3734 162,50.5C 162.667,41.8333 162.667,33.1667 162,24.5C 161.228,23.1509 160.061,22.3176 158.5,22C 161.249,20.8773 163.749,19.3773 166,17.5C 166.494,19.1341 166.66,20.8008 166.5,22.5 Z"/></g>
<g><path style="opacity:1" fill="#006600" d="M 187.5,21.5 C 188.388,24.0545 188.721,26.7212 188.5,29.5C 184.932,29.2407 183.599,27.2407 184.5,23.5C 184.167,22.5 183.5,21.8333 182.5,21.5C 181.749,20.4265 180.749,20.2599 179.5,21C 175.979,26.2083 174.979,31.7083 176.5,37.5C 176.229,42.6416 178.229,46.3083 182.5,48.5C 186.663,47.6237 188.83,44.957 189,40.5C 189.514,44.4622 188.68,48.1289 186.5,51.5C 184.787,53.8504 182.453,54.8504 179.5,54.5C 177.983,54.4894 176.816,53.8228 176,52.5C 174.725,50.2827 173.725,47.9494 173,45.5C 172.333,39.5 172.333,33.5 173,27.5C 173.471,25.7536 174.138,24.087 175,22.5C 179.108,16.9423 183.274,16.609 187.5,21.5 Z"/></g>
<g><path style="opacity:1" fill="#006600" d="M 230.5,20.5 C 231.117,30.1387 231.784,39.8053 232.5,49.5C 233.518,48.8075 234.518,48.1408 235.5,47.5C 235.5,48.1667 235.5,48.8333 235.5,49.5C 234.512,50.795 233.512,52.1283 232.5,53.5C 231.609,54.1098 230.609,54.4431 229.5,54.5C 229.167,53.8333 228.833,53.1667 228.5,52.5C 227.74,50.0155 226.74,50.0155 225.5,52.5C 224.395,53.6005 223.062,54.2671 221.5,54.5C 219.983,54.4894 218.816,53.8228 218,52.5C 216.566,48.5935 216.233,44.5935 217,40.5C 219.711,36.7881 223.044,33.7881 227,31.5C 227.497,28.854 227.664,26.1873 227.5,23.5C 227.167,22.5 226.5,21.8333 225.5,21.5C 224.458,20.2089 223.292,20.2089 222,21.5C 221.246,24.6392 220.246,27.6392 219,30.5C 217.482,28.3863 217.149,26.053 218,23.5C 221.077,17.1868 225.243,16.1868 230.5,20.5 Z"/></g>
<g><path style="opacity:1" fill="#196700" d="M 242.5,22.5 C 242.351,23.552 242.517,24.552 243,25.5C 243.791,24.255 244.291,22.9217 244.5,21.5C 246.463,16.7906 248.796,16.4573 251.5,20.5C 251.634,22.2915 251.301,23.9582 250.5,25.5C 250.167,25.5 249.833,25.5 249.5,25.5C 249.167,25.5 248.833,25.5 248.5,25.5C 247.833,25.1667 247.167,24.8333 246.5,24.5C 246.19,23.2617 245.69,23.2617 245,24.5C 243.253,33.4424 243.086,42.4424 244.5,51.5C 245.308,51.8076 245.975,52.3076 246.5,53C 245.207,53.49 243.873,53.6567 242.5,53.5C 241.167,53.5 239.833,53.5 238.5,53.5C 236.599,53.7535 235.933,53.4202 236.5,52.5C 237.458,52.0472 238.292,51.3805 239,50.5C 239.667,41.8333 239.667,33.1667 239,24.5C 238.119,22.7265 236.953,22.0598 235.5,22.5C 237.5,20.6729 239.667,19.0062 242,17.5C 242.494,19.1341 242.66,20.8008 242.5,22.5 Z"/></g>
<g><path style="opacity:1" fill="#006600" d="M 289.5,21.5 C 289.5,22.5 289.5,23.5 289.5,24.5C 289.66,26.1992 289.494,27.8659 289,29.5C 288.302,26.9963 287.469,24.663 286.5,22.5C 286.158,21.6618 285.492,21.3284 284.5,21.5C 283.292,20.218 281.958,20.218 280.5,21.5C 279.178,23.8646 279.178,26.1979 280.5,28.5C 281.402,30.3407 282.736,31.674 284.5,32.5C 285.5,34.1667 286.833,35.5 288.5,36.5C 290.091,39.9612 290.758,43.6279 290.5,47.5C 290.039,50.3033 288.705,52.6366 286.5,54.5C 284.5,54.5 282.5,54.5 280.5,54.5C 279.295,53.3143 277.961,53.3143 276.5,54.5C 276.5,53.8333 276.5,53.1667 276.5,52.5C 276.335,48.8183 276.501,45.1516 277,41.5C 277.661,44.802 278.828,47.802 280.5,50.5C 280.973,51.9063 281.973,52.573 283.5,52.5C 287.254,51.1724 288.421,48.5058 287,44.5C 284.37,40.8683 281.37,37.535 278,34.5C 276.682,31.594 276.348,28.594 277,25.5C 278.138,18.9342 281.472,16.9342 287,19.5C 287.945,19.0946 288.612,18.428 289,17.5C 289.49,18.7932 289.657,20.1266 289.5,21.5 Z"/></g>
<g><path style="opacity:1" fill="#006600" d="M 310.5,21.5 C 314.413,29.4333 315.413,37.7666 313.5,46.5C 312.079,50.0389 309.745,52.7056 306.5,54.5C 305.167,54.5 303.833,54.5 302.5,54.5C 300.983,54.4894 299.816,53.8228 299,52.5C 297.205,49.9007 295.705,47.2341 294.5,44.5C 294.5,43.8333 294.5,43.1667 294.5,42.5C 293.144,33.9973 294.978,26.3306 300,19.5C 304.009,16.8971 307.509,17.5637 310.5,21.5 Z"/></g>
<g><path style="opacity:1" fill="#006600" d="M 323.5,22.5 C 323.263,23.791 323.596,24.791 324.5,25.5C 323.394,33.7852 323.227,42.1185 324,50.5C 327.3,52.557 327.133,53.557 323.5,53.5C 321.143,53.6633 318.81,53.4966 316.5,53C 317.416,52.6258 318.25,52.1258 319,51.5C 319.667,42.1667 319.667,32.8333 319,23.5C 318.08,23.0698 317.247,22.7365 316.5,22.5C 318.5,20.6729 320.667,19.0062 323,17.5C 323.494,19.1341 323.66,20.8008 323.5,22.5 Z"/></g>
<g><path style="opacity:1" fill="#006600" d="M 334.5,20.5 C 336.136,30.7305 336.969,41.0639 337,51.5C 340.054,53.1229 339.554,53.7895 335.5,53.5C 333.167,53.5 330.833,53.5 328.5,53.5C 329.688,52.6364 330.855,51.6364 332,50.5C 332.823,42.3225 332.656,34.3225 331.5,26.5C 331.737,25.209 331.404,24.209 330.5,23.5C 329.5,22.1667 328.5,22.1667 327.5,23.5C 326.5,24.1667 325.5,24.8333 324.5,25.5C 324.833,24.1667 325.167,22.8333 325.5,21.5C 327.148,20.1902 328.814,18.8569 330.5,17.5C 331.901,18.5207 333.235,19.5207 334.5,20.5 Z"/></g>
<g><path style="opacity:1" fill="#bfc0bf" d="M 9.5,18.5 C 10.6737,19.5137 11.3404,20.847 11.5,22.5C 11.5,32.5 11.5,42.5 11.5,52.5C 10.5084,52.6716 9.84171,52.3382 9.5,51.5C 9.5,40.5 9.5,29.5 9.5,18.5 Z"/></g>
<g><path style="opacity:1" fill="#7a7303" d="M 46.5,21.5 C 43.1253,24.9193 40.7919,28.9193 39.5,33.5C 39.545,29.6535 40.3783,25.9869 42,22.5C 43.3466,20.5339 44.8466,20.2006 46.5,21.5 Z"/></g>
<g><path style="opacity:1" fill="#7a7303" d="M 81.5,21.5 C 79.1057,22.8943 77.439,24.8943 76.5,27.5C 76.3184,25.4086 76.6518,23.4086 77.5,21.5C 78.9584,20.218 80.2918,20.218 81.5,21.5 Z"/></g>
<g><path style="opacity:1" fill="#bfc0bf" d="M 109.5,20.5 C 111.752,20.9156 113.252,22.249 114,24.5C 115.331,34.4499 115.831,44.4499 115.5,54.5C 116.675,54.281 117.675,54.6143 118.5,55.5C 114.833,56.8333 111.167,56.8333 107.5,55.5C 108.602,54.8243 109.602,54.1577 110.5,53.5C 111.873,53.6567 113.207,53.49 114.5,53C 113.975,52.3076 113.308,51.8076 112.5,51.5C 111.971,41.0838 110.971,30.7505 109.5,20.5 Z"/></g>
<g><path style="opacity:1" fill="#bfc0bf" d="M 165.5,53.5 C 166.873,53.6567 168.207,53.49 169.5,53C 168.975,52.3076 168.308,51.8076 167.5,51.5C 166.502,41.8563 166.168,32.1896 166.5,22.5C 167.721,21.9717 168.887,21.305 170,20.5C 170.5,31.8284 170.667,43.1618 170.5,54.5C 171.675,54.281 172.675,54.6143 173.5,55.5C 170.167,56.8333 166.833,56.8333 163.5,55.5C 164.243,54.8182 164.909,54.1515 165.5,53.5 Z"/></g>
<g><path style="opacity:1" fill="#7a7303" d="M 182.5,21.5 C 177.95,25.809 175.95,31.1423 176.5,37.5C 174.979,31.7083 175.979,26.2083 179.5,21C 180.749,20.2599 181.749,20.4265 182.5,21.5 Z"/></g>
<g><path style="opacity:1" fill="#bfc0bf" d="M 209.5,20.5 C 211.017,20.5106 212.184,21.1772 213,22.5C 215.192,33.0354 216.025,43.702 215.5,54.5C 216.675,54.281 217.675,54.6143 218.5,55.5C 214.833,56.8333 211.167,56.8333 207.5,55.5C 208.602,54.8243 209.602,54.1577 210.5,53.5C 211.873,53.6567 213.207,53.49 214.5,53C 213.975,52.3076 213.308,51.8076 212.5,51.5C 211.892,41.099 210.892,30.7656 209.5,20.5 Z"/></g>
<g><path style="opacity:1" fill="#bfc0bf" d="M 230.5,20.5 C 231.721,21.0283 232.887,21.695 234,22.5C 235.406,30.7492 235.906,39.0826 235.5,47.5C 234.518,48.1408 233.518,48.8075 232.5,49.5C 231.784,39.8053 231.117,30.1387 230.5,20.5 Z"/></g>
<g><path style="opacity:1" fill="#bfc0bf" d="M 251.5,20.5 C 253.404,20.7376 254.738,21.7376 255.5,23.5C 255.567,24.9587 255.234,26.2921 254.5,27.5C 252.678,28.4286 251.345,27.7619 250.5,25.5C 251.301,23.9582 251.634,22.2915 251.5,20.5 Z"/></g>
<g><path style="opacity:1" fill="#7a7303" d="M 263.5,21.5 C 262.542,21.9528 261.708,22.6195 261,23.5C 259.485,27.6096 257.985,31.6096 256.5,35.5C 256.51,30.2736 257.843,25.4403 260.5,21C 261.749,20.2599 262.749,20.4265 263.5,21.5 Z"/></g>
<g><path style="opacity:1" fill="#7a7303" d="M 284.5,21.5 C 282.436,23.4918 281.103,25.8252 280.5,28.5C 279.178,26.1979 279.178,23.8646 280.5,21.5C 281.958,20.218 283.292,20.218 284.5,21.5 Z"/></g>
<g><path style="opacity:1" fill="#bfc0bf" d="M 289.5,24.5 C 289.5,23.5 289.5,22.5 289.5,21.5C 290.822,21.67 291.989,21.3366 293,20.5C 293.667,24.5 293.667,28.5 293,32.5C 292.678,29.3337 291.511,26.667 289.5,24.5 Z"/></g>
<g><path style="opacity:1" fill="#7a7303" d="M 304.5,21.5 C 302.485,24.8691 300.485,28.2024 298.5,31.5C 298.688,27.9359 299.688,24.6026 301.5,21.5C 302.614,20.2241 303.614,20.2241 304.5,21.5 Z"/></g>
<g><path style="opacity:1" fill="#bfc0bf" d="M 334.5,20.5 C 336.752,20.9156 338.252,22.249 339,24.5C 340.331,34.4499 340.831,44.4499 340.5,54.5C 341.675,54.281 342.675,54.6143 343.5,55.5C 339.833,56.8333 336.167,56.8333 332.5,55.5C 333.602,54.8243 334.602,54.1577 335.5,53.5C 339.554,53.7895 340.054,53.1229 337,51.5C 336.969,41.0639 336.136,30.7305 334.5,20.5 Z"/></g>
<g><path style="opacity:1" fill="#bfc0bf" d="M 46.5,21.5 C 47.5,21.8333 48.1667,22.5 48.5,23.5C 46.8868,23.9443 45.7202,24.9443 45,26.5C 42.8563,35.0434 43.3563,43.3768 46.5,51.5C 43.5657,50.7106 41.7324,48.7106 41,45.5C 40.3583,41.5092 39.8583,37.5092 39.5,33.5C 40.7919,28.9193 43.1253,24.9193 46.5,21.5 Z"/></g>
<g><path style="opacity:1" fill="#bfc0bf" d="M 51.5,21.5 C 54.8217,22.6582 56.9883,24.9916 58,28.5C 60,35.5 60,42.5 58,49.5C 56.3228,54.8789 52.8228,57.3789 47.5,57C 46.0577,56.6232 45.0577,55.7899 44.5,54.5C 45.8333,54.5 47.1667,54.5 48.5,54.5C 52.224,54.9498 54.3907,53.2832 55,49.5C 55.4966,47.1902 55.6633,44.8568 55.5,42.5C 56.1925,34.9967 54.8591,27.9967 51.5,21.5 Z"/></g>
<g><path style="opacity:1" fill="#bfc0bf" d="M 81.5,21.5 C 82.5,21.8333 83.1667,22.5 83.5,23.5C 82.2502,23.5774 81.4169,24.244 81,25.5C 80.5034,27.8098 80.3367,30.1432 80.5,32.5C 78.0274,32.9118 76.6941,31.9118 76.5,29.5C 76.5,28.8333 76.5,28.1667 76.5,27.5C 77.439,24.8943 79.1057,22.8943 81.5,21.5 Z"/></g>
<g><path style="opacity:1" fill="#bfc0bf" d="M 86.5,21.5 C 89.3882,21.2196 90.8882,22.5529 91,25.5C 91.4997,32.8258 91.6663,40.1591 91.5,47.5C 90.5178,48.1408 89.5178,48.8075 88.5,49.5C 87.8085,40.1079 87.1419,30.7745 86.5,21.5 Z"/></g>
<g><path style="opacity:1" fill="#bfc0bf" d="M 100.5,21.5 C 100.167,22.8333 99.8333,24.1667 99.5,25.5C 98.596,24.791 98.2627,23.791 98.5,22.5C 99.1667,22.1667 99.8333,21.8333 100.5,21.5 Z"/></g>
<g><path style="opacity:1" fill="#bfc0bf" d="M 182.5,21.5 C 183.5,21.8333 184.167,22.5 184.5,23.5C 182.827,24.343 181.66,25.6763 181,27.5C 178.782,34.7376 179.282,41.7376 182.5,48.5C 178.229,46.3083 176.229,42.6416 176.5,37.5C 175.95,31.1423 177.95,25.809 182.5,21.5 Z"/></g>
<g><path style="opacity:1" fill="#bfc0bf" d="M 187.5,21.5 C 191.683,23.4018 193.349,26.7351 192.5,31.5C 190.517,31.8432 189.183,31.1765 188.5,29.5C 188.721,26.7212 188.388,24.0545 187.5,21.5 Z"/></g>
<g><path style="opacity:1" fill="#bfc0bf" d="M 225.5,21.5 C 226.5,21.8333 227.167,22.5 227.5,23.5C 224.925,25.8453 223.925,28.8453 224.5,32.5C 223.5,32.5 222.5,32.5 221.5,32.5C 220.657,27.9057 221.991,24.2391 225.5,21.5 Z"/></g>
<g><path style="opacity:1" fill="#bfc0bf" d="M 244.5,21.5 C 244.291,22.9217 243.791,24.255 243,25.5C 242.517,24.552 242.351,23.552 242.5,22.5C 243.167,22.1667 243.833,21.8333 244.5,21.5 Z"/></g>
<g><path style="opacity:1" fill="#bfc0bf" d="M 263.5,21.5 C 264.5,21.8333 265.167,22.5 265.5,23.5C 263.827,24.343 262.66,25.6763 262,27.5C 259.725,35.4009 260.225,43.0676 263.5,50.5C 260.405,50.3737 258.572,48.707 258,45.5C 257.174,42.2072 256.674,38.8738 256.5,35.5C 257.985,31.6096 259.485,27.6096 261,23.5C 261.708,22.6195 262.542,21.9528 263.5,21.5 Z"/></g>
<g><path style="opacity:1" fill="#bfc0bf" d="M 284.5,21.5 C 285.492,21.3284 286.158,21.6618 286.5,22.5C 283.417,25.2485 282.75,28.5818 284.5,32.5C 282.736,31.674 281.402,30.3407 280.5,28.5C 281.103,25.8252 282.436,23.4918 284.5,21.5 Z"/></g>
<g><path style="opacity:1" fill="#bfc0bf" d="M 304.5,21.5 C 305.5,21.8333 306.167,22.5 306.5,23.5C 304.59,24.9746 303.424,26.9746 303,29.5C 302.091,36.9588 302.591,44.2921 304.5,51.5C 303.504,51.5858 302.671,51.2524 302,50.5C 299.015,44.5174 297.849,38.184 298.5,31.5C 300.485,28.2024 302.485,24.8691 304.5,21.5 Z"/></g>
<g><path style="opacity:1" fill="#bfc0bf" d="M 310.5,21.5 C 312.371,21.8588 313.871,22.8588 315,24.5C 319.615,34.1937 319.615,43.8604 315,53.5C 311.008,58.2797 306.841,58.613 302.5,54.5C 303.833,54.5 305.167,54.5 306.5,54.5C 311.611,54.3843 313.944,51.7176 313.5,46.5C 315.413,37.7666 314.413,29.4333 310.5,21.5 Z"/></g>
<g><path style="opacity:1" fill="#bfc0bf" d="M 325.5,21.5 C 325.167,22.8333 324.833,24.1667 324.5,25.5C 323.596,24.791 323.263,23.791 323.5,22.5C 324.167,22.1667 324.833,21.8333 325.5,21.5 Z"/></g>
<g><path style="opacity:1" fill="#7a7303" d="M 105.5,23.5 C 104.833,24.8333 104.167,26.1667 103.5,27.5C 102.566,26.4324 102.232,25.099 102.5,23.5C 103.5,22.1667 104.5,22.1667 105.5,23.5 Z"/></g>
<g><path style="opacity:1" fill="#7a7303" d="M 205.5,23.5 C 203.479,28.3659 202.479,28.3659 202.5,23.5C 203.348,22.375 204.348,22.375 205.5,23.5 Z"/></g>
<g><path style="opacity:1" fill="#7a7303" d="M 330.5,23.5 C 329.833,24.8333 329.167,26.1667 328.5,27.5C 327.566,26.4324 327.232,25.099 327.5,23.5C 328.5,22.1667 329.5,22.1667 330.5,23.5 Z"/></g>
<g><path style="opacity:1" fill="#7a7303" d="M 48.5,23.5 C 49.2216,23.9175 49.7216,24.5842 50,25.5C 52.0846,34.2729 51.9179,42.9396 49.5,51.5C 48.5,51.5 47.5,51.5 46.5,51.5C 43.3563,43.3768 42.8563,35.0434 45,26.5C 45.7202,24.9443 46.8868,23.9443 48.5,23.5 Z"/></g>
<g><path style="opacity:1" fill="#bfc0bf" d="M 102.5,23.5 C 102.232,25.099 102.566,26.4324 103.5,27.5C 102.56,35.7788 102.227,44.1122 102.5,52.5C 100.983,52.4894 99.8159,51.8228 99,50.5C 98.2274,42.1185 98.3941,33.7852 99.5,25.5C 100.5,24.8333 101.5,24.1667 102.5,23.5 Z"/></g>
<g><path style="opacity:1" fill="#bfc0bf" d="M 105.5,23.5 C 106.404,24.209 106.737,25.209 106.5,26.5C 105.609,27.1098 104.609,27.4431 103.5,27.5C 104.167,26.1667 104.833,24.8333 105.5,23.5 Z"/></g>
<g><path style="opacity:1" fill="#bfc0bf" d="M 202.5,23.5 C 202.479,28.3659 203.479,28.3659 205.5,23.5C 206.338,23.8417 206.672,24.5084 206.5,25.5C 205.571,26.9361 204.405,28.2695 203,29.5C 202.5,37.1594 202.334,44.8261 202.5,52.5C 200.983,52.4894 199.816,51.8228 199,50.5C 198.333,42.8333 198.333,35.1667 199,27.5C 199.66,25.6763 200.827,24.343 202.5,23.5 Z"/></g>
<g><path style="opacity:1" fill="#bfc0bf" d="M 246.5,24.5 C 246.34,29.079 247.007,29.4123 248.5,25.5C 248.833,25.5 249.167,25.5 249.5,25.5C 248.955,27.5932 248.122,29.5932 247,31.5C 246.353,39.1894 246.52,46.8561 247.5,54.5C 248.675,54.281 249.675,54.6143 250.5,55.5C 246.833,56.8333 243.167,56.8333 239.5,55.5C 240.602,54.8243 241.602,54.1577 242.5,53.5C 243.873,53.6567 245.207,53.49 246.5,53C 245.975,52.3076 245.308,51.8076 244.5,51.5C 243.086,42.4424 243.253,33.4424 245,24.5C 245.69,23.2617 246.19,23.2617 246.5,24.5 Z"/></g>
<g><path style="opacity:1" fill="#7a7303" d="M 265.5,23.5 C 266.302,24.9516 266.802,26.6183 267,28.5C 267.667,35.1667 267.667,41.8333 267,48.5C 266.184,49.8228 265.017,50.4894 263.5,50.5C 260.225,43.0676 259.725,35.4009 262,27.5C 262.66,25.6763 263.827,24.343 265.5,23.5 Z"/></g>
<g><path style="opacity:1" fill="#7a7303" d="M 306.5,23.5 C 307.793,24.842 308.626,26.5087 309,28.5C 311.026,36.2037 310.526,43.7037 307.5,51C 306.552,51.4828 305.552,51.6495 304.5,51.5C 302.591,44.2921 302.091,36.9588 303,29.5C 303.424,26.9746 304.59,24.9746 306.5,23.5 Z"/></g>
<g><path style="opacity:1" fill="#bfc0bf" d="M 327.5,23.5 C 327.232,25.099 327.566,26.4324 328.5,27.5C 327.212,36.2952 327.212,44.9618 328.5,53.5C 329.091,54.1515 329.757,54.8182 330.5,55.5C 327.167,56.8333 323.833,56.8333 320.5,55.5C 321.602,54.8243 322.602,54.1577 323.5,53.5C 327.133,53.557 327.3,52.557 324,50.5C 323.227,42.1185 323.394,33.7852 324.5,25.5C 325.5,24.8333 326.5,24.1667 327.5,23.5 Z"/></g>
<g><path style="opacity:1" fill="#bfc0bf" d="M 330.5,23.5 C 331.404,24.209 331.737,25.209 331.5,26.5C 330.609,27.1098 329.609,27.4431 328.5,27.5C 329.167,26.1667 329.833,24.8333 330.5,23.5 Z"/></g>
<g><path style="opacity:1" fill="#7a7303" d="M 246.5,24.5 C 247.167,24.8333 247.833,25.1667 248.5,25.5C 247.007,29.4123 246.34,29.079 246.5,24.5 Z"/></g>
<g><path style="opacity:1" fill="#7a7303" d="M 206.5,25.5 C 207.634,33.7548 207.801,42.0881 207,50.5C 205.855,51.6364 204.688,52.6364 203.5,53.5C 203.167,53.5 202.833,53.5 202.5,53.5C 202.5,53.1667 202.5,52.8333 202.5,52.5C 202.334,44.8261 202.5,37.1594 203,29.5C 204.405,28.2695 205.571,26.9361 206.5,25.5 Z"/></g>
<g><path style="opacity:1" fill="#7a7303" d="M 106.5,26.5 C 107.656,34.3225 107.823,42.3225 107,50.5C 105.855,51.6364 104.688,52.6364 103.5,53.5C 103.167,53.5 102.833,53.5 102.5,53.5C 102.5,53.1667 102.5,52.8333 102.5,52.5C 102.227,44.1122 102.56,35.7788 103.5,27.5C 104.609,27.4431 105.609,27.1098 106.5,26.5 Z"/></g>
<g><path style="opacity:1" fill="#7a7303" d="M 331.5,26.5 C 332.656,34.3225 332.823,42.3225 332,50.5C 330.855,51.6364 329.688,52.6364 328.5,53.5C 327.212,44.9618 327.212,36.2952 328.5,27.5C 329.609,27.4431 330.609,27.1098 331.5,26.5 Z"/></g>
<g><path style="opacity:1" fill="#bfc0bf" d="M 140.5,32.5 C 139.226,39.0374 139.226,45.704 140.5,52.5C 137.645,52.1578 136.145,50.4912 136,47.5C 135.501,41.5092 135.334,35.5092 135.5,29.5C 137.989,29.2407 139.656,30.2407 140.5,32.5 Z"/></g>
<g><path style="opacity:1" fill="#7a7303" d="M 83.5,37.5 C 79.6235,38.2274 77.2901,40.5607 76.5,44.5C 75.966,39.6017 78.1327,35.9351 83,33.5C 83.49,34.7932 83.6567,36.1266 83.5,37.5 Z"/></g>
<g><path style="opacity:1" fill="#7a7303" d="M 227.5,37.5 C 224.751,38.974 222.418,40.974 220.5,43.5C 220.357,41.7376 220.691,40.0709 221.5,38.5C 223.483,37.018 225.316,35.3513 227,33.5C 227.49,34.7932 227.657,36.1266 227.5,37.5 Z"/></g>
<g><path style="opacity:1" fill="#bfc0bf" d="M 288.5,36.5 C 290.017,36.5106 291.184,37.1772 292,38.5C 292.608,40.0664 293.442,41.3998 294.5,42.5C 294.5,43.1667 294.5,43.8333 294.5,44.5C 295.21,56.5252 290.543,59.8585 280.5,54.5C 282.5,54.5 284.5,54.5 286.5,54.5C 288.144,54.7135 289.644,54.3802 291,53.5C 291.789,51.2884 291.622,49.2884 290.5,47.5C 290.758,43.6279 290.091,39.9612 288.5,36.5 Z"/></g>
<g><path style="opacity:1" fill="#bfc0bf" d="M 83.5,37.5 C 83.5,38.1667 83.5,38.8333 83.5,39.5C 80.1682,42.1568 79.1682,45.4902 80.5,49.5C 77.0897,49.6162 75.7564,47.9496 76.5,44.5C 77.2901,40.5607 79.6235,38.2274 83.5,37.5 Z"/></g>
<g><path style="opacity:1" fill="#bfc0bf" d="M 227.5,37.5 C 227.5,38.1667 227.5,38.8333 227.5,39.5C 226.21,40.0577 225.377,41.0577 225,42.5C 224.503,44.8098 224.337,47.1432 224.5,49.5C 223.5,49.5 222.5,49.5 221.5,49.5C 221.167,47.5 220.833,45.5 220.5,43.5C 222.418,40.974 224.751,38.974 227.5,37.5 Z"/></g>
<g><path style="opacity:1" fill="#7a7303" d="M 83.5,39.5 C 83.6641,42.1873 83.4974,44.854 83,47.5C 82.2917,48.3805 81.4584,49.0472 80.5,49.5C 79.1682,45.4902 80.1682,42.1568 83.5,39.5 Z"/></g>
<g><path style="opacity:1" fill="#7a7303" d="M 227.5,39.5 C 227.664,42.1873 227.497,44.854 227,47.5C 226.292,48.3805 225.458,49.0472 224.5,49.5C 224.337,47.1432 224.503,44.8098 225,42.5C 225.377,41.0577 226.21,40.0577 227.5,39.5 Z"/></g>
<g><path style="opacity:1" fill="#7a7303" d="M 55.5,42.5 C 55.6633,44.8568 55.4966,47.1902 55,49.5C 54.3907,53.2832 52.224,54.9498 48.5,54.5C 52.3194,51.3839 54.6528,47.3839 55.5,42.5 Z"/></g>
<g><path style="opacity:1" fill="#bfc0bf" d="M 191.5,52.5 C 191.5,52.8333 191.5,53.1667 191.5,53.5C 189.765,55.2351 187.765,56.5684 185.5,57.5C 183.013,57.2413 181.013,56.2413 179.5,54.5C 182.453,54.8504 184.787,53.8504 186.5,51.5C 190.592,50.0132 192.758,47.0132 193,42.5C 193.69,46.0265 193.19,49.3598 191.5,52.5 Z"/></g>
<g><path style="opacity:1" fill="#bfc0bf" d="M 283.5,52.5 C 281.973,52.573 280.973,51.9063 280.5,50.5C 280.338,48.4727 280.505,46.4727 281,44.5C 282.136,47.0964 282.969,49.763 283.5,52.5 Z"/></g>
<g><path style="opacity:1" fill="#7a7303" d="M 313.5,46.5 C 313.944,51.7176 311.611,54.3843 306.5,54.5C 309.745,52.7056 312.079,50.0389 313.5,46.5 Z"/></g>
<g><path style="opacity:1" fill="#7a7303" d="M 290.5,47.5 C 291.622,49.2884 291.789,51.2884 291,53.5C 289.644,54.3802 288.144,54.7135 286.5,54.5C 288.705,52.6366 290.039,50.3033 290.5,47.5 Z"/></g>
<g><path style="opacity:1" fill="#bfc0bf" d="M 91.5,49.5 C 91.5,50.8333 92.1667,51.5 93.5,51.5C 93.0825,52.2216 92.4158,52.7216 91.5,53C 92.0944,53.4643 92.7611,53.631 93.5,53.5C 93.516,55.4841 92.516,56.4841 90.5,56.5C 89.2613,56.0576 88.2613,55.3909 87.5,54.5C 88.604,52.6115 89.9373,50.9448 91.5,49.5 Z"/></g>
<g><path style="opacity:1" fill="#bfc0bf" d="M 235.5,49.5 C 235.557,50.609 235.89,51.609 236.5,52.5C 235.933,53.4202 236.599,53.7535 238.5,53.5C 237.313,55.9754 235.313,56.9754 232.5,56.5C 232.5,55.5 232.5,54.5 232.5,53.5C 233.512,52.1283 234.512,50.795 235.5,49.5 Z"/></g>
<g><path style="opacity:1" fill="#7a7303" d="M 228.5,52.5 C 227.5,52.5 226.5,52.5 225.5,52.5C 226.74,50.0155 227.74,50.0155 228.5,52.5 Z"/></g>
<g><path style="opacity:1" fill="#7a7303" d="M 267.5,53.5 C 266.833,53.1667 266.167,52.8333 265.5,52.5C 266.988,49.8136 267.655,50.1469 267.5,53.5 Z"/></g>
<g><path style="opacity:1" fill="#bfc0bf" d="M 85.5,54.5 C 82.7565,57.0595 80.0898,57.0595 77.5,54.5C 79.1561,53.8535 80.8228,53.1869 82.5,52.5C 84.0377,52.4534 85.0377,53.1201 85.5,54.5 Z"/></g>
<g><path style="opacity:1" fill="#bfc0bf" d="M 225.5,52.5 C 226.5,52.5 227.5,52.5 228.5,52.5C 228.833,53.1667 229.167,53.8333 229.5,54.5C 226.757,57.0595 224.09,57.0595 221.5,54.5C 223.062,54.2671 224.395,53.6005 225.5,52.5 Z"/></g>
<g><path style="opacity:1" fill="#bfc0bf" d="M 265.5,52.5 C 266.167,52.8333 266.833,53.1667 267.5,53.5C 267.842,54.3382 268.508,54.6716 269.5,54.5C 266.596,58.451 263.596,58.451 260.5,54.5C 262.553,54.5979 264.22,53.9313 265.5,52.5 Z"/></g>
<g><path style="opacity:1" fill="#bfc0bf" d="M 8.5,53.5 C 9.5,53.5 10.5,53.5 11.5,53.5C 12.9008,53.9709 14.2342,54.6376 15.5,55.5C 12.1667,56.8333 8.83333,56.8333 5.5,55.5C 6.60164,54.8243 7.60164,54.1577 8.5,53.5 Z"/></g>
<g><path style="opacity:1" fill="#bfc0bf" d="M 98.5,53.5 C 99.8333,53.5 101.167,53.5 102.5,53.5C 102.833,53.5 103.167,53.5 103.5,53.5C 104.398,54.1577 105.398,54.8243 106.5,55.5C 102.833,56.8333 99.1667,56.8333 95.5,55.5C 96.6016,54.8243 97.6016,54.1577 98.5,53.5 Z"/></g>
<g><path style="opacity:1" fill="#bfc0bf" d="M 134.5,53.5 C 136.5,53.5 138.5,53.5 140.5,53.5C 141.718,54.1614 143.051,54.8281 144.5,55.5C 140.167,56.8333 135.833,56.8333 131.5,55.5C 132.602,54.8243 133.602,54.1577 134.5,53.5 Z"/></g>
<g><path style="opacity:1" fill="#bfc0bf" d="M 152.5,53.5 C 154.167,53.5 155.833,53.5 157.5,53.5C 158.167,53.5 158.833,53.5 159.5,53.5C 160.091,54.1515 160.757,54.8182 161.5,55.5C 158.894,56.6517 156.227,56.8184 153.5,56C 152.748,55.3292 152.414,54.4959 152.5,53.5 Z"/></g>
<g><path style="opacity:1" fill="#bfc0bf" d="M 198.5,53.5 C 199.833,53.5 201.167,53.5 202.5,53.5C 202.833,53.5 203.167,53.5 203.5,53.5C 204.398,54.1577 205.398,54.8243 206.5,55.5C 202.833,56.8333 199.167,56.8333 195.5,55.5C 196.602,54.8243 197.602,54.1577 198.5,53.5 Z"/></g>
</svg>
